<svg width="45" height="45" fill="none" xmlns="http://www.w3.org/2000/svg"><path d="M38.41 6.59C34.156 2.34 28.512 0 22.5 0S10.843 2.339 6.59 6.59C2.34 10.844 0 16.488 0 22.5s2.339 11.657 6.59 15.91C10.844 42.66 16.488 45 22.5 45s11.657-2.339 15.91-6.59C42.66 34.156 45 28.512 45 22.5s-2.339-11.657-6.59-15.91zM36.6 36.6a19.814 19.814 0 01-14.1 5.843A19.814 19.814 0 018.4 36.6C.625 28.826.625 16.174 8.4 8.4a19.814 19.814 0 0114.1-5.843A19.814 19.814 0 0136.6 8.4c7.775 7.774 7.775 20.426 0 28.2z" fill="#fff"/><path d="M32.415 12.584a1.275 1.275 0 00-1.809 0L22.5 20.689l-8.106-8.105a1.275 1.275 0 00-1.809 0 1.275 1.275 0 000 1.808l8.107 8.106-8.107 8.106a1.275 1.275 0 000 1.809c.247.246.578.379.9.379.322 0 .653-.123.9-.379l8.106-8.106 8.106 8.106c.246.246.577.379.9.379.33 0 .653-.123.899-.379a1.275 1.275 0 000-1.809l-8.087-8.106 8.106-8.106a1.275 1.275 0 000-1.808z" fill="#fff"/></svg>