<svg width="32" height="32" fill="none" xmlns="http://www.w3.org/2000/svg"><g clip-path="url(#clip0)" fill="#fff"><path d="M26.556 5.256A14.894 14.894 0 0015.912.955 14.894 14.894 0 005.345 5.441a14.894 14.894 0 00-4.301 10.644A14.894 14.894 0 005.53 26.653a14.894 14.894 0 0010.644 4.3 14.894 14.894 0 0010.568-4.485 14.894 14.894 0 004.3-10.644 14.894 14.894 0 00-4.486-10.568zm-1.03 20.016a13.209 13.209 0 01-9.367 3.977 13.21 13.21 0 01-9.433-3.813C1.497 20.3 1.424 11.865 6.56 6.636a13.21 13.21 0 019.366-3.976 13.21 13.21 0 019.434 3.813c5.228 5.137 5.302 13.571.164 18.8z"/><path d="M22.595 9.286a.85.85 0 00-1.205.01l-5.357 5.451-5.451-5.356a.85.85 0 00-1.206.01.85.85 0 00.01 1.206l5.452 5.357-5.357 5.45a.85.85 0 00.01 1.206.86.86 0 00.603.248.832.832 0 00.597-.258l5.357-5.451 5.45 5.357a.863.863 0 00.603.247.821.821 0 00.597-.258.85.85 0 00-.01-1.206l-5.439-5.356 5.357-5.451a.85.85 0 00-.01-1.206z"/></g><defs><clipPath id="clip0"><path fill="#fff" transform="rotate(-.5 124.895 -104.088)" d="M0 0h30v30H0z"/></clipPath></defs></svg>