<svg width="62" height="60" fill="none" xmlns="http://www.w3.org/2000/svg"><g filter="url(#filter0_d)" fill="#FFF600"><path d="M28.838 23.852c.55-.23.781-.887.533-1.42l-.87-1.828a1.061 1.061 0 00-1.384-.514c-1.509.639-2.804 1.473-3.834 2.484-1.26 1.19-2.112 2.556-2.573 4.064-.462 1.527-.71 3.603-.71 6.247v5.449c0 .585.48 1.065 1.065 1.065h6.975a1.07 1.07 0 001.065-1.065v-6.975c0-.586-.48-1.065-1.065-1.065h-3.337c.036-1.792.462-3.23 1.242-4.313.64-.869 1.598-1.579 2.893-2.13zm12.529.002c.55-.231.781-.888.533-1.42l-.87-1.81c-.248-.515-.852-.746-1.384-.515-1.49.639-2.769 1.473-3.816 2.467-1.26 1.207-2.13 2.573-2.591 4.082-.462 1.49-.692 3.567-.692 6.23v5.448c0 .585.48 1.065 1.065 1.065h6.974c.586 0 1.065-.48 1.065-1.065V31.36c0-.586-.479-1.065-1.065-1.065h-3.354c.036-1.793.462-3.23 1.242-4.313.64-.87 1.598-1.58 2.893-2.13z"/></g><defs><filter id="filter0_d" x="0" y="0" width="61.999" height="59.401" filterUnits="userSpaceOnUse" color-interpolation-filters="sRGB"><feFlood flood-opacity="0" result="BackgroundImageFix"/><feColorMatrix in="SourceAlpha" values="0 0 0 0 0 0 0 0 0 0 0 0 0 0 0 0 0 0 127 0" result="hardAlpha"/><feOffset/><feGaussianBlur stdDeviation="10"/><feColorMatrix values="0 0 0 0 0.960784 0 0 0 0 0.866667 0 0 0 0 0 0 0 0 0.3 0"/><feBlend in2="BackgroundImageFix" result="effect1_dropShadow"/><feBlend in="SourceGraphic" in2="effect1_dropShadow" result="shape"/></filter></defs></svg>