<svg width="37" height="37" fill="none" xmlns="http://www.w3.org/2000/svg"><path d="M36.277 29.773h-4.639a4.68 4.68 0 001.315-3.254c0-2.345-1.734-4.293-3.975-4.642v-5.243c.434-.064.811-.18 1.194-.35a4.694 4.694 0 001.45-1.014 4.673 4.673 0 001.331-3.277 4.346 4.346 0 00-.287-1.583 4.302 4.302 0 00-.793-1.303c-.624-.71-1.49-1.278-2.577-1.687l-3.43-1.289a.718.718 0 00-.254-.047.74.74 0 00-.255 1.432 582.4 582.4 0 013.43 1.273c.851.319 1.542.756 1.998 1.278a2.82 2.82 0 01.723 1.93c0 .868-.34 1.683-.953 2.298a3.23 3.23 0 01-2.178.948L7.86 7.826a3.614 3.614 0 01-1.7-1.195 3.163 3.163 0 01-.667-2.091c.072-1.603 1.378-2.958 2.974-3.086.07-.006.146-.009.217-.009.435 0 .896.104 1.534.346l9.039 3.4a.726.726 0 00.93-.422.724.724 0 00-.421-.932A16029.84 16029.84 0 0110.729.44C10.153.223 9.46.001 8.68 0a4.693 4.693 0 00-3.32 1.437 4.797 4.797 0 00-1.314 3.036s-.003.145-.003.218a4.576 4.576 0 00.97 2.824c.3.387.658.728 1.063 1.013.404.285.85.51 1.323.668l.622.215v5.168a4.42 4.42 0 00-1.193.35 4.698 4.698 0 00-1.45 1.014 4.673 4.673 0 00-1.332 3.277 4.346 4.346 0 00.287 1.573 4.5 4.5 0 00.78 1.309c.622.733 1.485 1.312 2.493 1.672.023.008.198.06.414.15v5.85H.723c-.4 0-.723.323-.723.722v5.781c0 .4.324.723.723.723h35.554c.4 0 .723-.324.723-.723v-5.78c0-.4-.324-.724-.723-.724zm-4.77-3.254a3.256 3.256 0 01-3.251 3.252 3.256 3.256 0 01-3.252-3.252 3.256 3.256 0 013.252-3.252 3.256 3.256 0 013.252 3.252zm-3.974-5.017l-1.445-.54v-3.42l1.445-.536v4.496zm-1.35-5.537l-6.76 2.504-8.607-3.22 6.76-2.504 8.608 3.22zm-1.54 2.112v2.344l-3.15-1.178 3.15-1.166zM12.357 10.92c.65.221 3.084 1.075 3.084 1.075l-3.084 1.142V10.92zm-2.89-1.007c.217.081 1.228.419 1.445.504v3.255l-1.445.535V9.913zm-3.25 11.255c-.486-.578-.723-1.215-.725-1.948 0-.868.339-1.685.953-2.3a3.237 3.237 0 012.176-.95l17.303 6.474a4.699 4.699 0 00-2.093 5.65l-.002-.002-15.737-5.679c-.76-.27-1.426-.712-1.875-1.245zm18.011 8.605h-3.56v-1.285c1.445.523 2.705.977 3.56 1.285zm-5.005-1.807v1.807h-1.446v-2.328c.217.08 1.446.521 1.446.521zm-2.891-1.043v2.85h-3.975v-4.285c1.229.455 2.674.953 3.975 1.435zm-5.42-1.957v4.807H9.467v-5.328c.433.152.9.325 1.419.512.009.003.026.006.026.01zm24.643 10.589H1.445v-1.446h34.11v1.446zm0-2.89H1.445v-1.446h34.11v1.445z" fill="#313131"/><path d="M22.56 6.383a.723.723 0 100-1.445.723.723 0 000 1.445z" fill="#313131"/></svg>