<svg width="38" height="38" fill="none" xmlns="http://www.w3.org/2000/svg"><path d="M29.094 36.813H8.906a4.161 4.161 0 01-4.156-4.157V5.344a4.161 4.161 0 014.156-4.157h20.188a4.161 4.161 0 014.156 4.157v27.312a4.161 4.161 0 01-4.156 4.157zM8.906 2.374a2.972 2.972 0 00-2.969 2.969v27.312a2.972 2.972 0 002.97 2.969h20.187a2.972 2.972 0 002.968-2.969V5.344a2.972 2.972 0 00-2.968-2.969H8.906z" fill="#313131"/><path d="M20.781 34.438H17.22a1.782 1.782 0 01-1.782-1.782v-2.375A1.781 1.781 0 0117.22 28.5h3.562a1.782 1.782 0 011.782 1.781v2.375a1.782 1.782 0 01-1.782 1.782zm-3.562-4.75a.594.594 0 00-.594.593v2.375a.594.594 0 00.594.594h3.562a.594.594 0 00.594-.594v-2.375a.594.594 0 00-.594-.593H17.22zm-4.75 4.75H8.906a1.781 1.781 0 01-1.781-1.782v-2.375A1.781 1.781 0 018.906 28.5h3.563a1.781 1.781 0 011.781 1.781v2.375a1.782 1.782 0 01-1.781 1.782zm-3.563-4.75a.594.594 0 00-.594.593v2.375a.594.594 0 00.594.594h3.563a.594.594 0 00.594-.594v-2.375a.594.594 0 00-.594-.593H8.906zm20.188 4.75H25.53a1.781 1.781 0 01-1.781-1.782v-9.5a1.781 1.781 0 011.781-1.781h3.563a1.781 1.781 0 011.781 1.781v9.5a1.782 1.782 0 01-1.781 1.782zM25.53 22.562a.594.594 0 00-.593.594v9.5a.594.594 0 00.593.594h3.563a.594.594 0 00.593-.594v-9.5a.594.594 0 00-.593-.593H25.53zm-4.749 4.751H17.22a1.782 1.782 0 01-1.782-1.782v-2.375a1.781 1.781 0 011.782-1.781h3.562a1.782 1.782 0 011.782 1.781v2.375a1.782 1.782 0 01-1.782 1.782zm-3.562-4.75a.594.594 0 00-.594.593v2.375a.594.594 0 00.594.594h3.562a.594.594 0 00.594-.594v-2.375a.594.594 0 00-.594-.593H17.22zm-4.75 4.75H8.906a1.781 1.781 0 01-1.781-1.782v-2.375a1.781 1.781 0 011.781-1.781h3.563a1.781 1.781 0 011.781 1.781v2.375a1.782 1.782 0 01-1.781 1.782zm-3.563-4.75a.594.594 0 00-.594.593v2.375a.594.594 0 00.594.594h3.563a.594.594 0 00.594-.594v-2.375a.594.594 0 00-.594-.593H8.906zm11.875-2.375H17.22a1.782 1.782 0 01-1.782-1.782v-2.375a1.781 1.781 0 011.782-1.781h3.562a1.782 1.782 0 011.782 1.781v2.375a1.782 1.782 0 01-1.782 1.782zm-3.562-4.75a.594.594 0 00-.594.593v2.375a.594.594 0 00.594.594h3.562a.594.594 0 00.594-.594v-2.375a.594.594 0 00-.594-.593H17.22zm-4.75 4.75H8.906a1.781 1.781 0 01-1.781-1.782v-2.375a1.781 1.781 0 011.781-1.781h3.563a1.781 1.781 0 011.781 1.781v2.375a1.782 1.782 0 01-1.781 1.782zm-3.563-4.75a.594.594 0 00-.594.593v2.375a.594.594 0 00.594.594h3.563a.594.594 0 00.594-.594v-2.375a.594.594 0 00-.594-.593H8.906zm20.188 4.75H25.53a1.781 1.781 0 01-1.781-1.782v-2.375a1.781 1.781 0 011.781-1.781h3.563a1.781 1.781 0 011.781 1.781v2.375a1.782 1.782 0 01-1.781 1.782zm-3.563-4.75a.594.594 0 00-.593.593v2.375a.594.594 0 00.593.594h3.563a.594.594 0 00.593-.594v-2.375a.594.594 0 00-.593-.593H25.53zm3.563-3.563H8.906a1.781 1.781 0 01-1.781-1.781v-4.75a1.781 1.781 0 011.781-1.782h20.188a1.781 1.781 0 011.781 1.782v4.75a1.781 1.781 0 01-1.781 1.781zM8.906 4.75a.594.594 0 00-.594.594v4.75a.594.594 0 00.594.594h20.188a.594.594 0 00.593-.594v-4.75a.594.594 0 00-.593-.594H8.906z" fill="#313131"/><path d="M27.313 10.094a1.781 1.781 0 01-1.782-1.781V7.125a1.781 1.781 0 013.563 0v1.188a1.781 1.781 0 01-1.782 1.78zm0-3.563a.594.594 0 00-.594.594v1.188a.594.594 0 101.187 0V7.125a.594.594 0 00-.593-.594z" fill="#313131"/></svg>