<svg width="36" height="36" fill="none" xmlns="http://www.w3.org/2000/svg"><g clip-path="url(#clip0)"><path d="M35.444 7.264h-2.93a3.052 3.052 0 00.374-2.824l-.89-2.388A3.049 3.049 0 0030.294.294a3.051 3.051 0 00-2.452.07l-7.03 3.338a2.11 2.11 0 00-1.23-.395H16.42a2.11 2.11 0 00-1.232.396L8.16.363a3.052 3.052 0 00-2.452-.07 3.05 3.05 0 00-1.706 1.759L3.113 4.44a3.05 3.05 0 00.374 2.824H.556A.556.556 0 000 7.82v4a.556.556 0 001.111 0V8.374h3.86c.061.022.124.042.187.06l4.665 1.283a37.111 37.111 0 00-2.734 4.99H1.111v-.666a.556.556 0 00-1.111 0v1.222c0 .307.249.556.556.556h1.981v19.67c0 .307.249.556.556.556h29.814a.556.556 0 00.556-.556v-3.226a.556.556 0 00-1.111 0v2.67H21.333v-18.77a29.754 29.754 0 013.13 9.57.555.555 0 00.993.254 30.999 30.999 0 002.212-3.378 31.657 31.657 0 013.247 2.54.555.555 0 00.92-.495 37.26 37.26 0 00-2.443-8.833h2.96V30.04a.556.556 0 101.11 0V15.82h1.982a.555.555 0 00.556-.556V7.82a.555.555 0 00-.556-.556zm-7.126-5.896a1.913 1.913 0 011.556-.045 1.91 1.91 0 011.083 1.117l.888 2.387a1.912 1.912 0 01-.091 1.554 1.91 1.91 0 01-1.207.982l-8.844 2.435v-2.67c1.987-1.218 6.944-3.73 8.177-1.988a.555.555 0 10.907-.643c-.952-1.344-2.958-1.409-5.963-.194a26.46 26.46 0 00-3.121 1.536v-.41c0-.298-.062-.581-.173-.839l6.788-3.223zM16.42 4.418h3.16c.558 0 1.012.454 1.012 1.011v4.593c0 .558-.454 1.011-1.011 1.011H16.42a1.012 1.012 0 01-1.011-1.01V5.428c0-.557.453-1.01 1.01-1.01zm-.934 10.29a29.628 29.628 0 011.732-2.564h1.564c.622.825 1.2 1.681 1.732 2.564h-5.028zM4.246 6.381a1.912 1.912 0 01-.092-1.554l.889-2.388c.19-.513.575-.91 1.083-1.116a1.912 1.912 0 011.556.045l6.788 3.224c-.11.257-.173.54-.173.838v.441a26.55 26.55 0 00-3.176-1.567c-3.004-1.215-5.01-1.15-5.963.194a.556.556 0 10.907.643c1.245-1.758 6.283.817 8.232 2.02v2.637L5.453 7.363a1.911 1.911 0 01-1.207-.982zm10.3 4.638c.277.517.762.908 1.342 1.058a30.913 30.913 0 00-5.226 12.17 30.434 30.434 0 01-1.647-2.7.555.555 0 00-.793-.201 32.188 32.188 0 00-2.706 1.976 36.3 36.3 0 015.433-13.294l3.598.99zm-10.898 4.8h2.96a37.276 37.276 0 00-2.443 8.834.555.555 0 00.92.495 31.626 31.626 0 013.247-2.54 30.967 30.967 0 002.212 3.378.556.556 0 00.993-.253 29.768 29.768 0 013.13-9.572v18.774H3.647V15.82zm12.13 19.116V15.82h4.444v19.115h-4.444zm12-13.59a.555.555 0 00-.792.202 30.368 30.368 0 01-1.648 2.7 30.904 30.904 0 00-5.226-12.17 2.13 2.13 0 001.341-1.058l3.599-.99a36.32 36.32 0 015.432 13.293 32.233 32.233 0 00-2.706-1.976zm7.11-6.636h-5.977a37.142 37.142 0 00-2.733-4.99l4.664-1.285c.063-.017.126-.037.188-.06h3.859v6.335z" fill="#000"/></g><defs><clipPath id="clip0"><path fill="#fff" d="M0 0h36v36H0z"/></clipPath></defs></svg>