<svg width="21" height="21" fill="none" xmlns="http://www.w3.org/2000/svg"><g clip-path="url(#clip0)" fill="#000"><path d="M.731 6.347a.731.731 0 00.732-.731V2.497l4.71 4.71a.73.73 0 001.035 0 .731.731 0 000-1.035l-4.711-4.71h3.119a.731.731 0 000-1.462H.73A.731.731 0 000 .731v4.885c0 .403.327.73.731.73zm19.538 8.306a.731.731 0 00-.731.732v3.118l-4.856-4.855a.732.732 0 00-1.034 1.034l4.855 4.856h-3.118a.731.731 0 100 1.462h4.884a.731.731 0 00.732-.731v-4.884a.732.732 0 00-.732-.732zM6.318 13.648l-4.855 4.855v-3.118a.731.731 0 10-1.463 0v4.884A.73.73 0 00.731 21h4.884a.731.731 0 100-1.462H2.497l4.855-4.856a.731.731 0 00-1.034-1.034zM20.269 0h-4.884a.731.731 0 100 1.463h3.118l-4.71 4.71a.731.731 0 101.035 1.034l4.71-4.71v3.119a.731.731 0 101.462 0V.73a.732.732 0 00-.73-.73z"/></g><defs><clipPath id="clip0"><path fill="#fff" d="M0 0h21v21H0z"/></clipPath></defs></svg>