<svg width="34" height="34" fill="none" xmlns="http://www.w3.org/2000/svg"><path d="M.586 28.14h32.828a.586.586 0 00.586-.587V6.45a.586.586 0 00-.586-.587H.586A.586.586 0 000 6.45v21.103c0 .324.263.586.586.586z" fill="#41479B"/><path d="M16.762 8.412l-.235.705-.743.006a.1.1 0 00-.059.18l.598.442-.224.708a.1.1 0 00.154.112l.604-.432.604.432a.1.1 0 00.154-.112l-.224-.708.598-.442a.1.1 0 00-.06-.18l-.742-.006-.235-.705a.1.1 0 00-.19 0zm0 15.133l-.235.705-.743.006a.1.1 0 00-.059.18l.598.442-.224.708a.1.1 0 00.154.111l.604-.432.604.432a.1.1 0 00.154-.111l-.224-.708.598-.442a.1.1 0 00-.06-.18l-.742-.006-.235-.705a.1.1 0 00-.19 0zm-7.567-7.566l-.235.704-.742.006a.1.1 0 00-.06.18l.598.442-.224.708a.1.1 0 00.154.112l.604-.432.605.432a.1.1 0 00.154-.112l-.225-.708.598-.441a.1.1 0 00-.059-.18l-.743-.007-.235-.704a.1.1 0 00-.19 0zm15.132 0l-.235.704-.743.006a.1.1 0 00-.058.18l.597.442-.224.708a.1.1 0 00.154.112l.604-.432.605.432a.1.1 0 00.153-.112l-.224-.708.598-.441a.1.1 0 00-.059-.18l-.743-.007-.235-.704a.1.1 0 00-.19 0zm-1.135-3.954l-.236.705-.742.006a.1.1 0 00-.06.18l.599.442-.224.708a.1.1 0 00.153.112l.605-.432.604.432a.1.1 0 00.154-.112l-.225-.708.598-.441a.1.1 0 00-.058-.181l-.743-.006-.236-.705a.1.1 0 00-.19 0zm-13.105 7.567l-.235.705-.743.005a.1.1 0 00-.059.181l.598.441-.224.709a.1.1 0 00.154.111l.604-.432.604.432a.1.1 0 00.154-.111l-.224-.709.598-.441a.1.1 0 00-.059-.18l-.743-.006-.235-.705a.1.1 0 00-.19 0zm2.77-10.336l-.236.705-.742.005a.1.1 0 00-.06.181l.599.441-.224.709a.1.1 0 00.153.111l.605-.432.604.432a.1.1 0 00.154-.111l-.225-.709.598-.44a.1.1 0 00-.059-.182l-.742-.005-.236-.705a.1.1 0 00-.19 0zm7.565 13.105l-.235.705-.743.006a.1.1 0 00-.059.18l.598.442-.224.708a.1.1 0 00.154.112l.604-.432.604.432a.1.1 0 00.154-.112l-.224-.708.598-.441a.1.1 0 00-.06-.181l-.742-.006-.235-.705a.1.1 0 00-.19 0zM10.277 12.025l.235.705.743.006a.1.1 0 01.059.18l-.598.442.224.708a.1.1 0 01-.154.112l-.604-.432-.604.432a.1.1 0 01-.154-.112l.224-.708-.598-.441a.1.1 0 01.06-.181l.742-.006.235-.705a.1.1 0 01.19 0zm13.104 7.567l.236.705.742.005a.1.1 0 01.06.181l-.599.441.225.709a.1.1 0 01-.154.111l-.604-.432-.605.432a.1.1 0 01-.153-.111l.224-.709-.598-.441a.1.1 0 01.059-.18l.742-.006.236-.705a.1.1 0 01.19 0zM20.612 9.256l.235.705.743.005a.1.1 0 01.059.181l-.598.441.224.709a.1.1 0 01-.154.111l-.604-.432-.604.432a.1.1 0 01-.154-.111l.224-.709-.598-.44a.1.1 0 01.06-.182l.742-.005.235-.705a.1.1 0 01.19 0zm-7.566 13.105l.236.705.742.006a.1.1 0 01.06.18l-.598.442.224.708a.1.1 0 01-.154.112l-.604-.432-.605.432a.1.1 0 01-.153-.112l.224-.708-.598-.441a.1.1 0 01.059-.181l.742-.006.236-.705a.1.1 0 01.19 0z" fill="#FFE15A"/></svg>