<svg width="143" height="143" fill="none" xmlns="http://www.w3.org/2000/svg"><circle cx="71.5" cy="71.5" r="71" stroke="#4C80C1" stroke-dasharray="5 5"/><circle cx="71.5" cy="71.5" r="61.5" fill="#4C80C1"/><path d="M40.39 69h-.995v-7.116h-4.68V69h-.996v-8.004h6.672V69zm5.268 0h-.996v-8.004h3.216c.776 0 1.388.232 1.836.696.448.464.672 1.036.672 1.716 0 .68-.228 1.252-.684 1.716-.448.464-1.056.696-1.824.696h-2.22V69zm2.1-4.068c.472 0 .856-.14 1.152-.42.296-.288.444-.656.444-1.104 0-.448-.148-.812-.444-1.092-.296-.288-.68-.432-1.152-.432h-2.1v3.048h2.1zm9.995 4.212c-1.176 0-2.132-.392-2.868-1.176-.736-.784-1.104-1.772-1.104-2.964s.368-2.18 1.104-2.964c.736-.784 1.692-1.176 2.868-1.176 1.168 0 2.12.392 2.856 1.176.744.784 1.116 1.772 1.116 2.964s-.372 2.18-1.116 2.964c-.736.784-1.688 1.176-2.856 1.176zm0-.888c.88 0 1.588-.304 2.124-.912.544-.616.816-1.396.816-2.34 0-.952-.272-1.732-.816-2.34-.536-.608-1.244-.912-2.124-.912-.888 0-1.6.304-2.136.912-.536.608-.804 1.388-.804 2.34 0 .944.268 1.724.804 2.34.536.608 1.248.912 2.136.912zM70.924 69H65.68v-8.004h5.244v.888h-4.248v2.58h4.165v.888h-4.164v2.76h4.247V69zm10.06 0H79.75l-3.036-3.6-.804.912V69h-.996v-8.004h.996v4.14l3.54-4.14h1.248L77.36 64.8l3.624 4.2zm6.512 0H86.5v-7.116h-2.532v-.888h6.072v.888h-2.544V69zm12.721 0h-.96v-8.004h.996v6.252l4.608-6.252h1.02V69h-.996v-6.384L100.217 69zM30.393 83.144a2.29 2.29 0 01-.912-.18 1.678 1.678 0 01-.648-.456l.42-.792c.344.36.708.54 1.092.54.304 0 .544-.08.72-.24.184-.16.392-.46.624-.9l.144-.276-3.072-5.844h1.14l2.508 4.956 2.508-4.956h1.14l-3.492 6.588c-.28.528-.58.92-.9 1.176-.32.256-.744.384-1.272.384zm12.666 0c-1.168 0-2.148-.384-2.94-1.152-.785-.776-1.176-1.772-1.176-2.988s.392-2.208 1.175-2.976c.792-.776 1.773-1.164 2.94-1.164 1.28 0 2.292.528 3.036 1.584l-.84.468a2.645 2.645 0 00-.935-.84 2.57 2.57 0 00-1.26-.324c-.88 0-1.616.308-2.209.924-.584.608-.876 1.384-.876 2.328s.293 1.724.877 2.34c.592.608 1.328.912 2.208.912a2.6 2.6 0 002.195-1.164l.852.468c-.776 1.056-1.791 1.584-3.047 1.584zm6.13 0v-.888c.344 0 .624-.08.84-.24.216-.16.408-.476.576-.948.168-.48.308-1.164.42-2.052l.492-4.02h4.896V83h-.996v-7.116h-3.012l-.396 3.204c-.104.856-.244 1.56-.42 2.112-.168.552-.38.968-.636 1.248-.248.272-.508.456-.78.552-.264.096-.592.144-.984.144zm12.299 0a2.29 2.29 0 01-.912-.18 1.678 1.678 0 01-.648-.456l.42-.792c.344.36.708.54 1.092.54.304 0 .544-.08.72-.24.184-.16.392-.46.624-.9l.144-.276-3.072-5.844h1.14l2.508 4.956 2.508-4.956h1.14l-3.492 6.588c-.28.528-.58.92-.9 1.176-.32.256-.744.384-1.272.384zM71.59 83h-.996v-8.004h5.244v.888H71.59V83zm14.045 0h-1.14l-.708-1.776h-3.984L79.096 83h-1.14l3.216-8.004h1.236L85.636 83zm-2.148-2.664l-1.692-4.308-1.704 4.308h3.396zM97 83.144c-.672 0-1.276-.124-1.812-.372s-.936-.564-1.2-.948l.588-.636c.24.32.576.58 1.008.78.44.192.904.288 1.392.288.624 0 1.116-.132 1.476-.396.36-.272.54-.64.54-1.104 0-.48-.188-.836-.564-1.068-.368-.232-.872-.348-1.512-.348h-1.632v-.888h1.632c.568 0 1.032-.108 1.392-.324.368-.224.552-.556.552-.996 0-.432-.184-.768-.552-1.008-.36-.24-.816-.36-1.368-.36-.904 0-1.66.324-2.268.972l-.552-.624c.32-.368.728-.664 1.224-.888a3.941 3.941 0 011.668-.348c.816 0 1.496.192 2.04.576.552.384.828.904.828 1.56 0 .528-.18.952-.54 1.272a2.417 2.417 0 01-1.188.588c.44.04.856.232 1.248.576.4.344.6.808.6 1.392 0 .672-.276 1.224-.828 1.656-.552.432-1.276.648-2.172.648zM110.836 83h-1.14l-.708-1.776h-3.984L104.296 83h-1.14l3.216-8.004h1.236L110.836 83zm-2.148-2.664l-1.692-4.308-1.704 4.308h3.396zM31.078 97h-2.424v-4.92l-1.356 1.344-1.368-1.428 3.06-3h2.088V97zm6.784.144c-1.4 0-2.516-.376-3.348-1.128l1.296-1.704c.56.464 1.236.696 2.029.696.376 0 .656-.064.84-.192.191-.128.288-.284.288-.468 0-.192-.088-.348-.264-.468-.177-.128-.44-.192-.793-.192-.6 0-1.095.184-1.487.552l-1.669-.384v-4.86h6.12v2.112h-3.696v1.128c.425-.408.98-.612 1.669-.612.712 0 1.32.244 1.823.732.505.48.756 1.108.756 1.884 0 .888-.316 1.596-.948 2.124-.632.52-1.504.78-2.616.78zm11.916-.588c-.544.392-1.2.588-1.968.588s-1.428-.196-1.98-.588a3.566 3.566 0 01-1.2-1.512 5.415 5.415 0 01-.372-2.04c0-1.16.308-2.136.924-2.928.616-.8 1.492-1.2 2.628-1.2 1.136 0 2.012.4 2.628 1.2.616.792.924 1.768.924 2.928 0 .744-.128 1.424-.384 2.04a3.449 3.449 0 01-1.2 1.512zm-3.084-3.552c0 1.336.372 2.004 1.116 2.004.744 0 1.116-.668 1.116-2.004 0-1.328-.372-1.992-1.116-1.992-.744 0-1.116.664-1.116 1.992zm13.02 3.552c-.545.392-1.2.588-1.969.588-.768 0-1.428-.196-1.98-.588a3.566 3.566 0 01-1.2-1.512 5.415 5.415 0 01-.372-2.04c0-1.16.308-2.136.924-2.928.616-.8 1.492-1.2 2.628-1.2 1.136 0 2.012.4 2.628 1.2.616.792.924 1.768.924 2.928 0 .744-.128 1.424-.384 2.04a3.449 3.449 0 01-1.2 1.512zm-3.085-3.552c0 1.336.372 2.004 1.116 2.004.744 0 1.116-.668 1.116-2.004 0-1.328-.372-1.992-1.116-1.992-.744 0-1.116.664-1.116 1.992zM72.443 97H70.02v-8.004h6.072v2.112h-3.648V97zm9.502 0H79.52v-8.004h4.272c.904 0 1.608.264 2.112.792.512.52.768 1.172.768 1.956 0 .776-.256 1.428-.768 1.956-.504.52-1.208.78-2.112.78h-1.848V97zm1.536-4.632a.845.845 0 00.528-.156.573.573 0 00.204-.468c0-.208-.068-.364-.204-.468a.803.803 0 00-.528-.168h-1.536v1.26h1.536zM97.582 97h-2.424v-3.06H92.29V97h-2.424v-8.004h2.424v2.832h2.868v-2.832h2.424V97zm13.125 0h-3.648v-8.004h3.564c.688 0 1.232.188 1.632.564.408.376.612.868.612 1.476 0 .48-.136.888-.408 1.224a1.713 1.713 0 01-.996.612c.424.064.788.288 1.092.672.312.384.468.816.468 1.296 0 .648-.208 1.172-.624 1.572-.408.392-.972.588-1.692.588zm-.252-4.536c.44 0 .78-.12 1.02-.36s.36-.548.36-.924-.124-.684-.372-.924c-.24-.248-.576-.372-1.008-.372h-2.4v2.58h2.4zm.048 3.648c.464 0 .828-.124 1.092-.372.264-.248.396-.584.396-1.008 0-.392-.132-.72-.396-.984-.256-.264-.62-.396-1.092-.396h-2.448v2.76h2.448zM42.773 111h-.996v-7.116h-4.68V111h-.996v-8.004h6.672V111zm7.92.144c-1.177 0-2.133-.392-2.869-1.176-.736-.784-1.104-1.772-1.104-2.964s.368-2.18 1.104-2.964c.736-.784 1.692-1.176 2.868-1.176 1.168 0 2.12.392 2.856 1.176.744.784 1.116 1.772 1.116 2.964s-.372 2.18-1.116 2.964c-.736.784-1.688 1.176-2.856 1.176zm0-.888c.88 0 1.587-.304 2.123-.912.544-.616.816-1.396.816-2.34 0-.952-.272-1.732-.816-2.34-.536-.608-1.244-.912-2.124-.912-.888 0-1.6.304-2.136.912-.536.608-.804 1.388-.804 2.34 0 .944.268 1.724.804 2.34.536.608 1.248.912 2.136.912zm6.93 2.22v-2.28c.352-.024.632-.108.84-.252.208-.144.396-.448.564-.912.176-.464.32-1.136.432-2.016l.492-4.02h4.896v7.116h.732v2.364h-.996V111h-5.964v1.476h-.996zm2.82-5.388c-.184 1.544-.592 2.552-1.224 3.024h4.632v-6.228h-3.012l-.396 3.204zM76.099 111h-1.14l-.709-1.776h-3.984L69.558 111h-1.14l3.216-8.004h1.237L76.099 111zm-2.148-2.664l-1.692-4.308-1.704 4.308h3.395zM80.54 111h-.996v-8.004h3.216c.776 0 1.388.232 1.836.696.448.464.672 1.036.672 1.716 0 .68-.228 1.252-.684 1.716-.448.464-1.056.696-1.824.696h-2.22V111zm2.1-4.068c.472 0 .856-.14 1.152-.42.296-.288.444-.656.444-1.104 0-.448-.148-.812-.444-1.092-.296-.288-.68-.432-1.152-.432h-2.1v3.048h2.1zm9.995 4.212c-1.176 0-2.132-.392-2.868-1.176-.736-.784-1.104-1.772-1.104-2.964s.368-2.18 1.104-2.964c.736-.784 1.692-1.176 2.868-1.176 1.168 0 2.12.392 2.856 1.176.744.784 1.116 1.772 1.116 2.964s-.372 2.18-1.116 2.964c-.736.784-1.688 1.176-2.856 1.176zm0-.888c.88 0 1.588-.304 2.124-.912.544-.616.816-1.396.816-2.34 0-.952-.272-1.732-.816-2.34-.536-.608-1.244-.912-2.124-.912-.888 0-1.6.304-2.136.912-.536.608-.804 1.388-.804 2.34 0 .944.268 1.724.804 2.34.536.608 1.248.912 2.136.912zm14 .744H105.4l-3.036-3.6-.804.912V111h-.996v-8.004h.996v4.14l3.54-4.14h1.248l-3.336 3.804 3.624 4.2zm-48.27-60.58c-2.146 0-4.06-.338-5.74-1.015-1.656-.677-2.963-1.563-3.92-2.66l3.045-4.095c.794.793 1.774 1.4 2.94 1.82 1.19.42 2.334.63 3.43.63 1.26 0 2.229-.21 2.905-.63.677-.42 1.015-.968 1.015-1.645s-.315-1.167-.945-1.47c-.606-.327-1.68-.49-3.22-.49-1.866 0-2.916.012-3.15.035v-5.355c.304.023 1.354.035 3.15.035 2.52 0 3.78-.607 3.78-1.82 0-.7-.361-1.225-1.085-1.575-.723-.373-1.668-.56-2.835-.56-2.193 0-4.13.747-5.81 2.24l-2.905-3.78c2.24-2.52 5.355-3.78 9.345-3.78 2.94 0 5.215.583 6.825 1.75 1.634 1.143 2.45 2.695 2.45 4.655 0 1.33-.501 2.485-1.505 3.465-.98.957-2.181 1.552-3.605 1.785 1.4.14 2.66.712 3.78 1.715 1.144.98 1.715 2.252 1.715 3.815 0 2.053-.886 3.722-2.66 5.005-1.773 1.283-4.106 1.925-7 1.925zM82.36 50h-9.835V26.655h9.8c3.733 0 6.767 1.05 9.1 3.15 2.357 2.1 3.535 4.935 3.535 8.505 0 3.57-1.178 6.417-3.535 8.54C89.092 48.95 86.07 50 82.36 50zm-.035-5.25c1.983 0 3.558-.618 4.725-1.855 1.167-1.26 1.75-2.788 1.75-4.585 0-1.89-.56-3.43-1.68-4.62-1.12-1.19-2.707-1.785-4.76-1.785h-3.815V44.75h3.78z" fill="#fff"/></svg>