<svg width="28" height="28" fill="none" xmlns="http://www.w3.org/2000/svg"><g clip-path="url(#clip0)" fill="#F5DD00"><path d="M27.584 17.402c-.992 0-1.503.4-1.954.754-.412.323-.737.577-1.442.577-.706 0-1.03-.255-1.442-.577-.45-.353-.962-.754-1.954-.754-.571 0-1.047.134-1.497.42a.416.416 0 00.447.702c.225-.143.526-.29 1.05-.29.705 0 1.03.255 1.441.577.451.353.962.754 1.955.754.992 0 1.504-.4 1.955-.754.41-.323.736-.577 1.441-.577a.416.416 0 100-.832zM2.98 18.565c-.222-.105-.41-.253-.61-.409-.45-.353-.962-.754-1.954-.754a.416.416 0 000 .832c.705 0 1.03.255 1.441.577.227.178.462.361.77.506a.414.414 0 00.553-.2.416.416 0 00-.2-.552zM21.253 2.219a5.287 5.287 0 00-5.281 5.28v4.034H6.907V7.499a2.789 2.789 0 012.786-2.785 2.789 2.789 0 012.786 2.785v.125c0 .688.56 1.248 1.247 1.248a1.25 1.25 0 001.248-1.248V7.5a5.287 5.287 0 00-5.28-5.28A5.287 5.287 0 004.412 7.5v13.163a.416.416 0 10.832 0V7.499a4.454 4.454 0 014.45-4.449 4.454 4.454 0 014.448 4.45v.124a.416.416 0 01-.832 0V7.5a3.621 3.621 0 00-3.617-3.617A3.622 3.622 0 006.075 7.5v12.14a.416.416 0 00.832 0v-.621h9.065v1.648a.416.416 0 00.832 0V7.499a4.454 4.454 0 014.45-4.449 4.454 4.454 0 014.448 4.45v.124a.416.416 0 01-.832 0V7.5a3.621 3.621 0 00-3.617-3.617A3.622 3.622 0 0017.635 7.5v1.518a.416.416 0 10.832 0V7.499a2.789 2.789 0 012.786-2.785 2.789 2.789 0 012.786 2.785v.125c0 .688.56 1.248 1.247 1.248a1.25 1.25 0 001.248-1.248V7.5c0-2.911-2.37-5.28-5.281-5.28zM6.907 12.365h9.065v.915H6.907v-.915zm9.065 4.075h-5.766a.416.416 0 100 .831h5.766v.915H6.907v-.915H8.82a.416.416 0 000-.831H6.907v-2.33h9.065v2.329z"/><path d="M18.05 9.984a.416.416 0 00-.415.416v10.391a.416.416 0 10.831 0v-10.39a.416.416 0 00-.415-.417z"/><path d="M27.584 20.512c-.992 0-1.503.4-1.954.754-.412.322-.737.576-1.442.576-.706 0-1.03-.254-1.442-.576-.45-.354-.962-.754-1.954-.754-.993 0-1.504.4-1.955.754-.411.322-.736.576-1.442.576-.705 0-1.03-.254-1.441-.576-.45-.354-.962-.754-1.955-.754-.992 0-1.503.4-1.954.754-.411.322-.736.576-1.441.576-.706 0-1.03-.254-1.442-.576-.45-.354-.962-.754-1.954-.754-.993 0-1.504.4-1.955.754-.411.322-.736.576-1.441.576-.706 0-1.03-.254-1.442-.576-.45-.354-.962-.754-1.954-.754a.416.416 0 000 .831c.705 0 1.03.255 1.441.577.451.353.962.754 1.955.754.992 0 1.503-.4 1.954-.754.411-.322.736-.577 1.442-.577.705 0 1.03.255 1.441.577.451.353.962.754 1.955.754.992 0 1.503-.4 1.954-.754.411-.322.736-.577 1.441-.577.706 0 1.03.255 1.442.577.45.353.962.754 1.954.754.993 0 1.504-.4 1.955-.754.411-.322.736-.577 1.442-.577.705 0 1.03.255 1.441.577.451.353.962.754 1.955.754.992 0 1.504-.4 1.954-.754.412-.322.737-.577 1.442-.577a.416.416 0 000-.831zm0 3.109c-.992 0-1.503.4-1.954.754-.412.322-.736.577-1.442.577-.705 0-1.03-.255-1.442-.577-.45-.353-.962-.754-1.954-.754-.993 0-1.504.4-1.955.754-.411.322-.736.577-1.441.577-.706 0-1.03-.255-1.442-.577-.45-.353-.962-.754-1.954-.754-.993 0-1.504.4-1.955.754-.411.322-.736.577-1.441.577-.706 0-1.03-.255-1.442-.577-.45-.353-.962-.754-1.954-.754a.416.416 0 100 .832c.705 0 1.03.254 1.441.577.451.353.962.753 1.955.753.992 0 1.503-.4 1.954-.753.412-.323.736-.577 1.442-.577.705 0 1.03.254 1.441.577.451.353.962.753 1.955.753.992 0 1.503-.4 1.954-.753.412-.323.736-.577 1.442-.577.705 0 1.03.254 1.441.577.451.353.962.753 1.955.753.993 0 1.504-.4 1.955-.753.41-.323.736-.577 1.441-.577a.416.416 0 000-.832zm-21.747.825a.416.416 0 00-.584-.07c-.411.321-.736.576-1.441.576-.706 0-1.03-.255-1.442-.577-.45-.353-.962-.754-1.954-.754a.416.416 0 100 .832c.705 0 1.03.254 1.441.577.451.353.962.753 1.955.753.992 0 1.503-.4 1.954-.753a.416.416 0 00.07-.584z"/></g><defs><clipPath id="clip0"><path fill="#fff" d="M0 0h28v28H0z"/></clipPath></defs></svg>