<svg width="30" height="30" fill="none" xmlns="http://www.w3.org/2000/svg"><g clip-path="url(#clip0)" fill="#F5DD00"><path d="M14.813 17.595a.438.438 0 00.374 0c.106-.05 2.596-1.246 2.596-3.357A1.877 1.877 0 0015 12.598a1.877 1.877 0 00-2.783 1.64c0 2.111 2.49 3.307 2.596 3.357zm-.721-4.353c.232 0 .45.078.63.225a.44.44 0 00.556 0 .997.997 0 011.626.772c0 1.271-1.39 2.172-1.904 2.461-.514-.29-1.904-1.19-1.904-2.462 0-.549.447-.996.996-.996z"/><path d="M20.054 11.83L15.22 9.04a.44.44 0 00-.44 0l-4.834 2.79a.44.44 0 00-.22.38v5.583a.44.44 0 00.22.38l1.656.956a.44.44 0 10.44-.76l-1.437-.83v-5.074L15 9.927l4.395 2.538v5.074L15 20.076l-1.436-.829a.44.44 0 00-.44.761l1.656.956a.44.44 0 00.44 0l4.834-2.79a.44.44 0 00.22-.381V12.21a.44.44 0 00-.22-.38z"/><path d="M28.561 18.165a1.31 1.31 0 00-.614-.8 1.31 1.31 0 00-1-.132l-3.718.996-1.198-.692v-1.219h.824A1.32 1.32 0 0024.173 15a1.32 1.32 0 00-1.318-1.318h-.824v-1.22l1.198-.69 3.718.995c.34.091.695.045 1-.131a1.31 1.31 0 00.614-.8 1.31 1.31 0 00-.131-1.001 1.31 1.31 0 00-.801-.615l-1.17-.313 1.049-.606a1.32 1.32 0 00-.318-2.415 1.31 1.31 0 00-1 .132l-1.05.605.314-1.17a1.31 1.31 0 00-.132-1 1.31 1.31 0 00-.8-.615 1.31 1.31 0 00-1 .132 1.31 1.31 0 00-.615.8l-.996 3.718-1.198.691-1.056-.61.412-.712a1.32 1.32 0 00-1.483-1.933 1.31 1.31 0 00-.8.615l-.412.713-1.055-.61V6.26l2.72-2.721a1.31 1.31 0 00.387-.933 1.32 1.32 0 00-2.25-.932l-.857.857V1.318A1.32 1.32 0 0015 0a1.32 1.32 0 00-1.318 1.318V2.53l-.857-.857a1.32 1.32 0 00-2.25.932c0 .353.136.684.386.933l2.72 2.721v1.383l-1.055.61-.411-.713a1.32 1.32 0 00-1.801-.483 1.32 1.32 0 00-.483 1.801l.412.713-1.056.61-1.198-.692-.996-3.718a1.32 1.32 0 00-2.415-.318 1.31 1.31 0 00-.132 1l.314 1.171-1.05-.606a1.309 1.309 0 00-1-.131 1.31 1.31 0 00-.8.614 1.31 1.31 0 00-.132 1c.091.34.31.625.614.8l1.05.607-1.17.313a1.31 1.31 0 00-.801.614 1.32 1.32 0 001.483 1.933l3.717-.996 1.198.692v1.219h-.823A1.32 1.32 0 005.827 15a1.32 1.32 0 001.319 1.318h.823v1.22l-1.198.69-3.717-.995a1.32 1.32 0 00-1.615.932 1.32 1.32 0 00.932 1.615l1.17.313-1.049.606a1.32 1.32 0 00-.482 1.8 1.32 1.32 0 001.8.483l1.05-.605-.314 1.17a1.31 1.31 0 00.132 1 1.313 1.313 0 001.801.483 1.31 1.31 0 00.614-.8l.996-3.718 1.198-.692 1.056.61-.412.713a1.32 1.32 0 00.483 1.8 1.32 1.32 0 001.8-.482l.412-.713 1.056.61v1.383l-2.722 2.721a1.31 1.31 0 00-.386.932 1.32 1.32 0 002.25.932l.858-.856v1.212A1.32 1.32 0 0015 30a1.32 1.32 0 001.319-1.318V27.47l.856.857a1.32 1.32 0 002.25-.933 1.31 1.31 0 00-.385-.932l-2.721-2.721v-1.383l1.055-.61.412.713a1.32 1.32 0 001.8.483 1.32 1.32 0 00.483-1.801l-.412-.713 1.056-.61 1.198.692.996 3.718c.091.34.31.624.614.8.305.176.66.223 1 .132.34-.091.625-.31.801-.614a1.31 1.31 0 00.132-1l-.314-1.171 1.05.606a1.32 1.32 0 001.8-.483 1.32 1.32 0 00-.482-1.8l-1.05-.607 1.171-.313a1.32 1.32 0 00.932-1.615zm-1.16.766l-2.195.588a.44.44 0 00-.106.805l1.968 1.136a.436.436 0 01.161.6.436.436 0 01-.6.161l-1.968-1.136a.44.44 0 00-.644.494l.588 2.196a.437.437 0 01-.31.538.437.437 0 01-.54-.31l-1.042-3.894a.44.44 0 00-.205-.267l-1.575-.91a.44.44 0 00-.44 0l-1.656.957a.44.44 0 00-.16.6l.631 1.093a.437.437 0 01-.16.6.44.44 0 01-.601-.16l-.631-1.094a.44.44 0 00-.6-.16l-1.657.956a.44.44 0 00-.22.38v1.819a.44.44 0 00.13.31l2.85 2.85a.44.44 0 01-.622.622l-1.607-1.607a.44.44 0 00-.75.311v2.273a.44.44 0 01-.88 0v-2.273a.44.44 0 00-.75-.31l-1.607 1.606a.436.436 0 01-.621 0 .44.44 0 010-.621l2.85-2.85a.439.439 0 00.129-.311v-1.819a.44.44 0 00-.22-.38l-1.656-.957a.439.439 0 00-.6.161l-.631 1.094a.44.44 0 01-.762-.44l.632-1.093a.44.44 0 00-.161-.6l-1.656-.956a.44.44 0 00-.44 0l-1.575.91a.44.44 0 00-.204.266l-1.044 3.893a.437.437 0 01-.538.31.437.437 0 01-.31-.537l.588-2.196a.44.44 0 00-.645-.494l-1.968 1.136a.44.44 0 01-.44-.76L4.9 20.323a.44.44 0 00-.106-.805l-2.195-.588a.44.44 0 01.227-.85l3.893 1.044a.44.44 0 00.334-.044l1.575-.91a.44.44 0 00.22-.38v-1.912a.44.44 0 00-.44-.44H7.146a.44.44 0 010-.879h1.262a.44.44 0 00.44-.439v-1.91a.44.44 0 00-.22-.38l-1.575-.91a.44.44 0 00-.334-.044l-3.893 1.043a.44.44 0 01-.227-.849l2.195-.588a.44.44 0 00.106-.805L2.932 8.54a.437.437 0 01-.161-.6.437.437 0 01.6-.161L5.34 8.915a.44.44 0 00.645-.494l-.589-2.196a.437.437 0 01.311-.538.44.44 0 01.538.31l1.043 3.894a.44.44 0 00.205.267l1.576.91a.44.44 0 00.439 0l1.656-.957a.44.44 0 00.16-.6l-.63-1.093a.437.437 0 01.16-.6.44.44 0 01.6.16l.632 1.094a.44.44 0 00.6.16l1.656-.956a.44.44 0 00.22-.38V6.077a.44.44 0 00-.129-.31l-2.85-2.85a.44.44 0 01.621-.622l1.607 1.607a.44.44 0 00.75-.311V1.318a.44.44 0 01.88 0v2.273a.44.44 0 00.75.31l1.607-1.606a.437.437 0 01.621 0 .44.44 0 010 .621l-2.85 2.85a.44.44 0 00-.128.311v1.819a.44.44 0 00.22.38l1.655.957a.44.44 0 00.6-.161l.632-1.094a.437.437 0 01.6-.16.44.44 0 01.16.6l-.63 1.093a.44.44 0 00.16.6l1.656.956a.44.44 0 00.44 0l1.575-.91a.44.44 0 00.205-.266l1.043-3.893a.437.437 0 01.538-.31.436.436 0 01.31.537l-.587 2.196a.44.44 0 00.644.494l1.968-1.136a.436.436 0 01.6.16.437.437 0 01-.16.6L25.1 9.677a.44.44 0 00.106.805l2.195.588a.436.436 0 01.311.539.437.437 0 01-.538.31l-3.893-1.043a.44.44 0 00-.334.044l-1.575.91a.44.44 0 00-.22.38v1.912c0 .243.197.44.44.44h1.263a.44.44 0 010 .879h-1.263a.44.44 0 00-.44.439v1.912a.44.44 0 00.22.38l1.575.91a.443.443 0 00.334.044l3.893-1.043a.436.436 0 01.538.31.44.44 0 01-.31.539z"/></g><defs><clipPath id="clip0"><path fill="#fff" d="M0 0h30v30H0z"/></clipPath></defs></svg>