<svg xmlns="http://www.w3.org/2000/svg" width="70pt" height="70pt" viewBox="0 0 70 70"><g id="surface1"><path d="M142.497 71.5c0 39.213-31.784 70.997-70.997 70.997S.503 110.713.503 71.5 32.287.503 71.5.503s70.997 31.784 70.997 70.997zm0 0" transform="scale(.48951)" fill="none" stroke="#4c80c1" stroke-dasharray="5,5"/><path d="M65.105 35c0 16.625-13.48 30.105-30.105 30.105S4.895 51.625 4.895 35 18.375 4.895 35 4.895 65.105 18.375 65.105 35zm0 0" fill="#4c80c1"/><path d="M19.773 33.777h-.488v-3.484h-2.293v3.484h-.488V29.86h3.27zm2.579 0h-.489V29.86h1.575c.378 0 .68.114.898.34.219.227.328.508.328.84 0 .332-.11.613-.336.84-.219.226-.515.34-.89.34h-1.086zm1.027-1.992c.23 0 .418-.07.562-.207a.721.721 0 00.22-.539.706.706 0 00-.22-.535.773.773 0 00-.562-.211h-1.027v1.492zm4.89 2.063c-.574 0-1.042-.192-1.402-.578-.36-.383-.539-.868-.539-1.45s.18-1.066.54-1.449c.359-.387.827-.578 1.402-.578.574 0 1.039.191 1.398.578.363.383.547.867.547 1.45 0 .581-.184 1.066-.547 1.449-.36.386-.824.578-1.398.578zm0-.438c.434 0 .778-.148 1.04-.445.27-.3.402-.684.402-1.145 0-.465-.133-.847-.402-1.144-.262-.297-.606-.45-1.04-.45-.433 0-.78.153-1.042.45-.266.297-.395.68-.395 1.144 0 .461.129.844.395 1.145.261.297.609.445 1.043.445zm6.45.367h-2.567V29.86h2.567v.434H32.64v1.262h2.035v.437H32.64v1.348h2.078zm4.926 0h-.606l-1.488-1.761-.395.445v1.316h-.484V29.86h.484v2.024l1.735-2.024h.609l-1.633 1.86zm3.183 0h-.484v-3.484h-1.242v-.434h2.972v.434h-1.246zm6.23 0h-.472V29.86h.488v3.059l2.258-3.059h.496v3.918h-.484v-3.125zM14.879 40.7a1.15 1.15 0 01-.448-.086.787.787 0 01-.317-.226L14.32 40c.168.176.348.266.535.266.149 0 .266-.04.352-.118.09-.078.191-.226.305-.441l.07-.137-1.504-2.86h.559l1.226 2.427 1.23-2.426h.555l-1.707 3.227c-.136.257-.285.449-.441.574-.156.125-.363.187-.621.187zm6.2 0c-.574 0-1.05-.187-1.441-.562-.383-.38-.575-.867-.575-1.465 0-.594.192-1.078.575-1.457.39-.38.867-.567 1.441-.567.625 0 1.121.258 1.485.774l-.41.23a1.34 1.34 0 00-.458-.414 1.26 1.26 0 00-.617-.156c-.43 0-.793.148-1.082.453-.285.297-.43.676-.43 1.137 0 .465.145.844.43 1.148.29.297.652.446 1.082.446a1.276 1.276 0 001.074-.57l.418.23c-.379.515-.879.773-1.492.773zm3 0v-.433c.168 0 .305-.04.41-.118.106-.078.2-.234.285-.464.082-.235.149-.57.204-1.004l.242-1.97h2.394v3.919h-.484v-3.484h-1.477l-.195 1.57c-.05.418-.117.762-.203 1.035-.082.27-.188.473-.313.61a.96.96 0 01-.382.269c-.13.047-.29.07-.48.07zm6.02 0c-.16 0-.309-.027-.446-.086a.787.787 0 01-.316-.226l.203-.387c.172.176.348.266.535.266a.52.52 0 00.356-.118c.09-.078.191-.226.304-.441l.07-.137-1.503-2.86h.558l1.227 2.427 1.227-2.426h.558l-1.71 3.227c-.138.257-.282.449-.438.574-.157.125-.368.187-.625.187zm4.945-.07h-.484v-3.92h2.566v.434h-2.082zm6.875 0h-.555l-.347-.867h-1.95l-.347.867h-.559l1.574-3.918h.606zm-1.05-1.305l-.829-2.11-.832 2.11zm6.616 1.375a2.08 2.08 0 01-.886-.18c-.266-.124-.461-.277-.59-.464l.289-.313c.117.156.281.285.492.383.215.094.441.14.684.14.304 0 .543-.066.722-.195a.639.639 0 00.262-.539c0-.234-.09-.41-.273-.523-.184-.113-.43-.172-.743-.172h-.796v-.434h.796c.278 0 .504-.05.684-.156.18-.11.27-.273.27-.488a.566.566 0 00-.27-.496 1.204 1.204 0 00-.672-.176c-.441 0-.812.16-1.11.477l-.269-.305c.156-.18.356-.324.598-.434a1.94 1.94 0 01.816-.172c.399 0 .735.094 1 .282a.89.89 0 01.407.765.79.79 0 01-.266.621 1.19 1.19 0 01-.582.29c.215.019.418.113.61.28a.853.853 0 01.296.68.987.987 0 01-.406.813c-.27.21-.625.316-1.063.316zm6.77-.07H53.7l-.347-.867h-1.95l-.347.867h-.559l1.574-3.918h.606zm-1.05-1.305l-.829-2.11-.832 2.11zm-37.993 8.16h-1.184v-2.41l-.664.656-.672-.699 1.5-1.465h1.02zm3.324.07c-.687 0-1.234-.187-1.64-.554l.636-.832a1.5 1.5 0 00.992.34c.184 0 .32-.031.41-.094.094-.062.141-.14.141-.23 0-.094-.043-.168-.129-.227-.086-.062-.215-.098-.386-.098-.293 0-.54.094-.73.274l-.817-.188v-2.379h2.996v1.032H18.2v.554c.207-.203.48-.3.817-.3.347 0 .644.117.894.359.246.234.367.539.367.922 0 .433-.152.781-.46 1.039-.313.254-.739.383-1.282.383zm5.832-.288c-.265.191-.586.289-.965.289-.375 0-.699-.098-.968-.29a1.73 1.73 0 01-.586-.742 2.644 2.644 0 01-.184-.996c0-.57.152-1.047.453-1.433.301-.39.73-.59 1.285-.59.559 0 .985.2 1.29.59.3.386.449.863.449 1.433 0 .364-.063.696-.188.996a1.674 1.674 0 01-.586.743zm-1.512-1.739c0 .653.184.98.547.98.368 0 .547-.327.547-.98 0-.652-.18-.976-.547-.976-.363 0-.547.324-.547.976zm6.375 1.739c-.265.191-.585.289-.964.289-.375 0-.7-.098-.97-.29a1.73 1.73 0 01-.585-.742 2.644 2.644 0 01-.184-.996c0-.57.153-1.047.453-1.433.301-.39.73-.59 1.286-.59.558 0 .984.2 1.289.59.3.386.449.863.449 1.433 0 .364-.063.696-.188.996-.12.301-.316.547-.586.743zm-1.511-1.739c0 .653.183.98.547.98.367 0 .547-.327.547-.98 0-.652-.18-.976-.547-.976-.364 0-.547.324-.547.976zm7.742 1.957h-1.188v-3.918h2.973v1.032h-1.785zm4.652 0h-1.187v-3.918h2.09c.445 0 .789.13 1.035.387.25.254.375.574.375.957 0 .38-.125.7-.375.957-.246.254-.59.383-1.035.383h-.903zm.75-2.27a.432.432 0 00.262-.073.288.288 0 00.098-.23c0-.102-.032-.18-.098-.231a.41.41 0 00-.262-.082h-.75v.617zm6.903 2.27h-1.184v-1.5h-1.406v1.5h-1.184v-3.918h1.184v1.383h1.406v-1.383h1.184zm6.425 0h-1.785v-3.918h1.746c.336 0 .602.09.797.274.2.183.301.426.301.722a.938.938 0 01-.2.602.838.838 0 01-.487.297.83.83 0 01.535.328.993.993 0 01.226.637c0 .316-.101.574-.304.77-.2.19-.477.288-.829.288zm-.12-2.222c.214 0 .378-.059.495-.176a.603.603 0 00.18-.453.606.606 0 00-.184-.453c-.117-.121-.28-.18-.492-.18h-1.175v1.262zm.023 1.785c.226 0 .402-.059.531-.18.133-.12.195-.289.195-.496a.64.64 0 00-.195-.48c-.125-.13-.3-.196-.531-.196h-1.2v1.352zm-33.157 7.289h-.488v-3.484h-2.29v3.484h-.488v-3.918h3.265zm3.875.07c-.574 0-1.042-.191-1.402-.574-.36-.387-.539-.867-.539-1.453 0-.582.18-1.066.54-1.45.359-.386.827-.577 1.401-.577.575 0 1.04.191 1.399.578.367.383.547.867.547 1.449 0 .586-.18 1.066-.547 1.453-.36.383-.824.574-1.398.574zm0-.433c.434 0 .778-.149 1.043-.45.266-.3.399-.683.399-1.144 0-.465-.133-.848-.399-1.145-.265-.297-.609-.445-1.043-.445-.433 0-.78.148-1.042.445-.262.297-.395.68-.395 1.145 0 .46.133.844.395 1.144.261.301.609.45 1.043.45zm3.395 1.086v-1.12a.81.81 0 00.41-.12c.102-.071.195-.223.278-.45.085-.226.156-.555.21-.984l.243-1.969h2.394v3.484h.36v1.157h-.489v-.723h-2.918v.723zm1.379-2.637c-.09.754-.29 1.25-.598 1.48h2.266v-3.05H29.78zm7.664 1.914h-.559l-.343-.871h-1.953l-.344.87h-.559l1.574-3.917h.606zM36.2 53.03l-.829-2.11-.832 2.11zm3.226 1.305h-.489v-3.918h1.575c.379 0 .68.113.898.34.219.226.328.508.328.84 0 .332-.11.613-.332.84-.218.226-.52.34-.894.34h-1.086zm1.027-1.992a.79.79 0 00.563-.203.721.721 0 00.218-.543.693.693 0 00-.218-.535.773.773 0 00-.563-.211h-1.027v1.492zm4.895 2.062c-.578 0-1.047-.191-1.407-.574-.359-.387-.539-.867-.539-1.453 0-.582.18-1.066.54-1.45.359-.386.828-.577 1.406-.577.57 0 1.035.191 1.398.578.363.383.543.867.543 1.449 0 .586-.18 1.066-.543 1.453-.363.383-.828.574-1.398.574zm0-.433c.43 0 .777-.149 1.039-.45.265-.3.398-.683.398-1.144 0-.465-.133-.848-.398-1.145-.262-.297-.61-.445-1.04-.445-.437 0-.785.148-1.046.445-.262.297-.395.68-.395 1.145 0 .46.133.844.395 1.144.261.301.61.45 1.047.45zm6.851.363h-.605l-1.485-1.762-.394.446v1.316h-.488v-3.918h.488v2.027l1.734-2.027h.61l-1.633 1.863zM28.57 24.68c-1.05 0-1.988-.164-2.808-.496-.813-.332-1.453-.766-1.922-1.301l1.492-2.004c.387.387.867.683 1.438.89.585.204 1.144.31 1.68.31.616 0 1.093-.106 1.421-.31.332-.206.5-.476.5-.804 0-.332-.156-.574-.465-.723-.297-.16-.82-.238-1.574-.238-.914 0-1.43.004-1.543.016v-2.622c.148.012.66.02 1.543.02 1.23 0 1.848-.297 1.848-.89 0-.344-.176-.602-.532-.774-.351-.184-.816-.274-1.386-.274-1.075 0-2.02.368-2.844 1.098l-1.422-1.851c1.098-1.235 2.621-1.852 4.574-1.852 1.438 0 2.555.285 3.34.86.8.558 1.2 1.316 1.2 2.277 0 .652-.247 1.215-.735 1.695-.48.469-1.07.762-1.766.875.684.066 1.301.348 1.852.84.559.48.84 1.101.84 1.867 0 1.004-.438 1.82-1.305 2.45-.867.628-2.008.94-3.426.94zm11.746-.203H35.5v-11.43h4.8c1.825 0 3.31.515 4.454 1.543 1.152 1.027 1.73 2.414 1.73 4.164 0 1.746-.578 3.14-1.73 4.18-1.145 1.027-2.621 1.543-4.438 1.543zm-.015-2.57c.969 0 1.738-.305 2.312-.91.57-.618.856-1.364.856-2.243 0-.926-.274-1.68-.824-2.262-.547-.582-1.325-.875-2.329-.875H38.45v6.29zm0 0" fill="#fff"/></g></svg>