<svg width="30" height="30" fill="none" xmlns="http://www.w3.org/2000/svg"><g clip-path="url(#clip0)" fill="#F5DD00"><path d="M23 0H7c-.827 0-1.5.673-1.5 1.5S6.173 3 7 3h16c.827 0 1.5-.673 1.5-1.5S23.827 0 23 0zm0 2H7a.5.5 0 010-1h16a.5.5 0 010 1zm0 25H7c-.827 0-1.5.673-1.5 1.5S6.173 30 7 30h16c.827 0 1.5-.673 1.5-1.5S23.827 27 23 27zm0 2H7a.5.5 0 010-1h16a.5.5 0 010 1z"/><path d="M18.563 13.144A13.353 13.353 0 0022.5 3.639V2.5A.5.5 0 0022 2H8a.5.5 0 00-.5.5v1.14c0 3.59 1.398 6.965 3.937 9.504l.502.502c.357.357.561.85.561 1.354 0 .504-.204.997-.56 1.354l-.503.502A13.353 13.353 0 007.5 26.36v1.14a.5.5 0 00.5.5h14a.5.5 0 00.5-.5v-1.14c0-3.59-1.398-6.965-3.937-9.504l-.502-.503A1.9 1.9 0 0117.5 15c0-.512.199-.992.56-1.354l.503-.502zm-1.21-.204A2.893 2.893 0 0016.5 15c0 .779.303 1.51.854 2.06l.502.503A12.36 12.36 0 0121.5 26.36V27h-13v-.64c0-3.323 1.294-6.447 3.643-8.797l.503-.502c.551-.55.854-1.283.854-2.061s-.303-1.51-.854-2.06l-.502-.503A12.36 12.36 0 018.5 3.639V3h13v.64a12.36 12.36 0 01-3.644 8.797l-.503.503z"/><path d="M19.225 8.422c-.05-.127-.222-.424-.726-.424-2.597 0-3.755-.556-4.214-.888a2.137 2.137 0 00-1.966-.29 1.97 1.97 0 00-1.264 1.358 1.502 1.502 0 00-.053.274.528.528 0 00.062.292c.469.83 1.009 1.706 1.787 2.484l.502.503a3.884 3.884 0 011.146 2.767.5.5 0 101 0c0-1.045.407-2.028 1.146-2.767l.503-.503c.124-.123.285-.275.462-.441 1.293-1.216 1.836-1.807 1.615-2.365zm-2.3 1.636c-.186.175-.355.334-.484.463l-.503.503c-.388.388-.703.83-.939 1.309a4.91 4.91 0 00-.939-1.31l-.502-.502c-.614-.614-1.063-1.29-1.531-2.106a.977.977 0 01.625-.652c.349-.124.74-.065 1.046.157.637.46 1.893 1.004 4.3 1.071-.31.348-.795.805-1.074 1.067zm3.541 15.403c-.126-1.621-.776-2.294-1.528-3.074-.101-.106-.207-.215-.316-.331A3.346 3.346 0 0016.188 21h-2.376c-.919 0-1.806.385-2.434 1.056-.109.116-.214.225-.316.33-.752.78-1.402 1.454-1.527 3.076a.5.5 0 00.498.538h9.934a.5.5 0 00.499-.539zM10.603 25c.17-.873.573-1.291 1.18-1.919l.325-.342A2.34 2.34 0 0113.812 22h2.376c.644 0 1.265.27 1.704.738.113.122.222.234.327.343.606.629 1.01 1.047 1.18 1.919h-8.796zm4.382-9a.5.5 0 00-.5.5v.5a.5.5 0 101 0v-.5a.5.5 0 00-.5-.5zm0 2.5a.5.5 0 00-.5.5v.5a.5.5 0 101 0V19a.5.5 0 00-.5-.5z"/></g><defs><clipPath id="clip0"><path fill="#fff" d="M0 0h30v30H0z"/></clipPath></defs></svg>