<svg width="97" height="77" fill="none" xmlns="http://www.w3.org/2000/svg"><path d="M90.841.777H6.159A6.159 6.159 0 000 6.936v63.127a6.159 6.159 0 006.159 6.159H90.84A6.16 6.16 0 0097 70.063V6.936A6.159 6.159 0 0090.841.777zm0 6.159v44.79L78.704 40.693a4.618 4.618 0 00-6.373.152L60.047 53.126l-24.22-28.93a4.619 4.619 0 00-7.043-.048L6.16 50.443V6.936h84.68zM64.667 23.103a8.467 8.467 0 018.468-8.469 8.467 8.467 0 018.468 8.469 8.467 8.467 0 01-8.468 8.468 8.467 8.467 0 01-8.468-8.468z" fill="#F0F0F1"/></svg>