<svg width="110" height="35" fill="none" xmlns="http://www.w3.org/2000/svg"><path d="M61.143 17.558h-4.757V11.61h-5.629v5.948H46V2h4.757v5.505h5.629V2h4.757v15.558zm12.834-1.446c-1.162 1.15-2.716 1.726-4.663 1.726s-3.5-.575-4.663-1.726c-1.146-1.15-1.719-2.55-1.719-4.198 0-1.649.573-3.04 1.72-4.176 1.161-1.15 2.715-1.726 4.662-1.726s3.501.575 4.663 1.726c1.162 1.135 1.743 2.527 1.743 4.176 0 1.648-.581 3.047-1.743 4.198zm-4.663-1.983c.644 0 1.146-.202 1.508-.606.36-.42.541-.956.541-1.61 0-.637-.18-1.158-.541-1.562-.362-.42-.864-.63-1.508-.63-.628 0-1.122.21-1.483.63-.362.404-.542.925-.542 1.563 0 .653.18 1.19.542 1.609.36.404.855.606 1.483.606zm26.875 3.429h-4.24V10.98c0-.373-.11-.676-.33-.91-.203-.233-.525-.35-.965-.35-.643 0-1.224.296-1.742.887v6.951h-4.24V10.98c0-.84-.431-1.26-1.295-1.26-.628 0-1.2.296-1.719.887v6.951H77.42V6.292h4.24v1.283c.297-.373.792-.723 1.483-1.05a5.076 5.076 0 012.284-.513c1.696 0 2.787.66 3.274 1.983.36-.545.895-1.011 1.601-1.4a4.938 4.938 0 012.379-.583c1.083 0 1.939.28 2.567.84.628.56.942 1.407.942 2.542v8.164zm8.041.28c-1.821 0-3.336-.536-4.545-1.61-1.193-1.072-1.79-2.51-1.79-4.315 0-1.663.581-3.063 1.743-4.198 1.162-1.135 2.645-1.703 4.451-1.703 1.711 0 3.124.575 4.239 1.726 1.115 1.135 1.672 2.675 1.672 4.619v.863h-7.725c.126.388.401.723.825 1.003.424.28.965.42 1.625.42.361 0 .816-.078 1.366-.234.565-.155.981-.342 1.248-.56l1.743 2.59c-.534.45-1.249.8-2.144 1.05-.894.233-1.797.35-2.708.35zm1.743-7.277c-.22-.902-.848-1.353-1.884-1.353-.989 0-1.609.45-1.861 1.353h3.745z" fill="#fff"/><path d="M55.868 32.72H46V17.162h9.538c1.507 0 2.661.404 3.462 1.213.8.808 1.2 1.726 1.2 2.752 0 .949-.25 1.742-.753 2.38a3.322 3.322 0 01-1.93 1.189c.863.124 1.577.544 2.142 1.26.565.7.848 1.547.848 2.542 0 1.166-.4 2.162-1.201 2.986-.8.824-1.947 1.236-3.438 1.236zM54.43 22.9a.917.917 0 00.942-.933.774.774 0 00-.283-.63.95.95 0 00-.659-.256h-3.674V22.9h3.674zm.141 5.901c.346 0 .613-.085.801-.256a.935.935 0 00.306-.723.909.909 0 00-.306-.7c-.204-.202-.471-.303-.8-.303h-3.816V28.8h3.815zm18.683 3.919h-4.24v-1.073c-.313.404-.792.731-1.436.98a5.384 5.384 0 01-2.001.373c-.974 0-1.869-.319-2.685-.956-.817-.653-1.225-1.571-1.225-2.753 0-.87.212-1.586.636-2.146.44-.575.934-.956 1.484-1.143a5.145 5.145 0 011.79-.303c1.632 0 2.779.412 3.438 1.236V25.77c0-.404-.189-.739-.565-1.003-.361-.264-.88-.396-1.555-.396-1.13 0-2.182.365-3.155 1.096l-1.437-2.59c1.429-1.135 3.219-1.702 5.37-1.702a8.62 8.62 0 012.072.233 5.64 5.64 0 011.766.723c.55.327.974.817 1.272 1.47.314.637.471 1.407.471 2.309v6.811zm-5.911-2.45c.832 0 1.39-.201 1.672-.606v-.63c-.283-.404-.84-.606-1.672-.606-.99 0-1.484.311-1.484.933 0 .607.495.91 1.484.91zM80.333 33c-1.036 0-2.072-.156-3.109-.467-1.036-.326-1.86-.746-2.472-1.26l1.695-2.822c.456.358 1.1.685 1.931.98.832.296 1.555.443 2.167.443.754 0 1.13-.163 1.13-.49 0-.155-.164-.28-.494-.373a5.48 5.48 0 00-1.178-.186c-.47-.047-.989-.14-1.554-.28a8.663 8.663 0 01-1.554-.537c-.471-.233-.872-.606-1.201-1.12-.314-.513-.471-1.135-.471-1.865 0-1.073.447-1.983 1.342-2.73.91-.746 2.159-1.12 3.745-1.12 1.805 0 3.446.483 4.921 1.447l-1.554 2.73c-.392-.312-.895-.584-1.507-.817a5.005 5.005 0 00-1.837-.35c-.298 0-.55.054-.754.163-.204.093-.306.202-.306.327 0 .155.22.272.66.35l1.601.28c.644.108 1.28.272 1.908.49.643.217 1.185.614 1.625 1.189.44.56.66 1.275.66 2.146 0 1.135-.488 2.068-1.461 2.799-.974.715-2.284 1.073-3.933 1.073zm11.663 0c-1.036 0-2.072-.156-3.109-.467-1.036-.326-1.86-.746-2.472-1.26l1.695-2.822c.456.358 1.1.685 1.931.98.832.296 1.555.443 2.167.443.754 0 1.13-.163 1.13-.49 0-.155-.164-.28-.494-.373a5.479 5.479 0 00-1.178-.186c-.47-.047-.989-.14-1.554-.28a8.663 8.663 0 01-1.554-.537c-.471-.233-.872-.606-1.201-1.12-.314-.513-.471-1.135-.471-1.865 0-1.073.447-1.983 1.342-2.73.91-.746 2.159-1.12 3.744-1.12 1.806 0 3.447.483 4.922 1.447l-1.554 2.73c-.392-.312-.895-.584-1.507-.817a5.005 5.005 0 00-1.837-.35c-.298 0-.55.054-.754.163-.204.093-.306.202-.306.327 0 .155.22.272.66.35l1.601.28c.644.108 1.28.272 1.908.49.643.217 1.185.614 1.625 1.189.44.56.659 1.275.659 2.146 0 1.135-.487 2.068-1.46 2.799-.974.715-2.285 1.073-3.933 1.073z" fill="#fff"/><g clip-path="url(#clip0)" fill="#fff"><path d="M34.412 29.365a1.367 1.367 0 00-1.902.344c-1.733 2.496-6.776 2.497-8.51 0a1.367 1.367 0 00-2.246 0c-1.732 2.496-6.775 2.497-8.509 0a1.367 1.367 0 00-2.246 0c-1.732 2.496-6.775 2.497-8.509 0a1.367 1.367 0 00-2.246 1.559c2.51 3.616 8.578 4.007 11.878 1.227 2.903 2.445 7.887 2.416 10.756 0 3.299 2.78 9.37 2.386 11.878-1.227.43-.62.276-1.472-.344-1.903zM6.7 21.6c.754 0 1.366-.612 1.366-1.367v-2.05h12.305v2.05a1.367 1.367 0 002.734 0V5.332c0-1.056.859-1.914 1.914-1.914 1.056 0 1.914.858 1.914 1.914a1.367 1.367 0 002.735 0A4.654 4.654 0 0025.019.684a4.654 4.654 0 00-4.648 4.648v3.964H8.066V5.332c0-1.056.859-1.914 1.914-1.914 1.056 0 1.915.858 1.915 1.914a1.367 1.367 0 002.734 0A4.654 4.654 0 009.98.684a4.654 4.654 0 00-4.648 4.648v14.901c0 .755.612 1.367 1.367 1.367zm1.366-9.57h12.305v3.418H8.066V12.03z"/><path d="M12.123 26.339c1.376 1.16 3.285 1.82 5.377 1.82 2.092 0 4.001-.66 5.378-1.82 3.299 2.78 9.37 2.385 11.878-1.227a1.367 1.367 0 10-2.246-1.56c-1.733 2.496-6.776 2.498-8.51 0a1.367 1.367 0 00-2.246 0c-1.732 2.496-6.775 2.498-8.509 0a1.367 1.367 0 00-2.246 0c-1.732 2.497-6.775 2.498-8.509 0a1.367 1.367 0 10-2.246 1.56c2.51 3.616 8.578 4.007 11.879 1.227z"/></g><defs><clipPath id="clip0"><path fill="#fff" d="M0 0h35v35H0z"/></clipPath></defs></svg>