<svg width="171" height="54" fill="none" xmlns="http://www.w3.org/2000/svg"><path d="M96.188 27.09h-7.285v-9.21h-8.619v9.21H73V3h7.284v8.524h8.62V3h7.284v24.09zm19.652-2.239c-1.779 1.782-4.159 2.673-7.14 2.673s-5.361-.891-7.14-2.673c-1.755-1.782-2.633-3.949-2.633-6.501 0-2.552.878-4.707 2.633-6.465 1.779-1.782 4.159-2.673 7.14-2.673s5.361.891 7.14 2.673c1.779 1.758 2.669 3.913 2.669 6.465s-.89 4.72-2.669 6.501zm-7.14-3.07c.986 0 1.755-.313 2.308-.939.553-.65.829-1.48.829-2.492 0-.987-.276-1.794-.829-2.42-.553-.65-1.322-.975-2.308-.975-.962 0-1.719.325-2.272.975-.553.626-.829 1.433-.829 2.42 0 1.011.276 1.842.829 2.492.553.626 1.31.939 2.272.939zm41.151 5.309h-6.491V16.905c0-.578-.168-1.047-.505-1.408-.312-.362-.805-.542-1.478-.542-.986 0-1.875.457-2.669 1.372V27.09h-6.491V16.905c0-1.3-.661-1.95-1.983-1.95-.962 0-1.839.457-2.632 1.372V27.09h-6.492V9.646h6.492v1.986c.456-.578 1.214-1.12 2.271-1.625 1.058-.53 2.224-.795 3.498-.795 2.597 0 4.268 1.024 5.013 3.07.553-.843 1.37-1.565 2.452-2.167 1.106-.602 2.32-.903 3.642-.903 1.659 0 2.969.434 3.931 1.3.962.867 1.442 2.18 1.442 3.937V27.09zm12.314.434c-2.789 0-5.109-.831-6.96-2.492-1.827-1.662-2.741-3.889-2.741-6.682 0-2.577.89-4.744 2.669-6.501 1.779-1.758 4.051-2.637 6.816-2.637 2.62 0 4.784.891 6.491 2.673 1.707 1.758 2.56 4.141 2.56 7.151v1.336h-11.828c.192.602.613 1.12 1.262 1.553.649.434 1.479.65 2.488.65.553 0 1.25-.12 2.092-.36.865-.241 1.502-.53 1.911-.867l2.669 4.009c-.818.698-1.912 1.24-3.282 1.625-1.37.361-2.753.542-4.147.542zm2.669-11.269c-.337-1.396-1.299-2.095-2.885-2.095-1.515 0-2.465.698-2.849 2.095h5.734z" fill="#fff"/><path d="M88.11 50.567H73v-24.09h14.605c2.308 0 4.075.625 5.3 1.877 1.227 1.253 1.84 2.673 1.84 4.262 0 1.469-.385 2.697-1.154 3.684a5.079 5.079 0 01-2.957 1.842c1.322.193 2.416.843 3.282 1.95.865 1.084 1.298 2.396 1.298 3.937 0 1.806-.613 3.347-1.84 4.623-1.225 1.276-2.98 1.915-5.264 1.915zm-2.2-15.206c.385 0 .721-.132 1.01-.397a1.43 1.43 0 00.432-1.047c0-.41-.144-.735-.432-.976a1.446 1.446 0 00-1.01-.397h-5.626v2.817h5.626zm.216 9.138c.53 0 .938-.133 1.226-.397.313-.29.47-.663.47-1.12 0-.434-.157-.795-.47-1.084-.312-.313-.72-.47-1.226-.47h-5.842v3.07h5.842zm28.607 6.068h-6.491v-1.662c-.481.626-1.214 1.132-2.2 1.517a8.167 8.167 0 01-3.065.578c-1.491 0-2.861-.494-4.111-1.48-1.25-1.012-1.876-2.433-1.876-4.263 0-1.348.325-2.456.974-3.322.673-.891 1.43-1.481 2.272-1.77a7.8 7.8 0 012.741-.47c2.5 0 4.255.638 5.265 1.914v-1.805c0-.626-.289-1.144-.866-1.553-.553-.41-1.346-.614-2.38-.614-1.731 0-3.342.565-4.832 1.697l-2.2-4.009c2.188-1.758 4.928-2.637 8.222-2.637 1.154 0 2.212.12 3.173.362.962.216 1.864.59 2.705 1.12.842.505 1.491 1.263 1.947 2.275.481.987.722 2.179.722 3.575v10.547zm-9.052-3.793c1.274 0 2.128-.313 2.561-.939v-.975c-.433-.626-1.287-.939-2.561-.939-1.514 0-2.272.482-2.272 1.445 0 .939.758 1.408 2.272 1.408zM125.572 51a16.32 16.32 0 01-4.76-.722c-1.586-.506-2.848-1.156-3.786-1.95l2.596-4.37c.698.553 1.683 1.059 2.957 1.516 1.275.458 2.38.686 3.318.686 1.154 0 1.731-.253 1.731-.758 0-.241-.252-.434-.757-.578-.481-.145-1.082-.24-1.803-.289a16.716 16.716 0 01-2.38-.433 13.138 13.138 0 01-2.38-.831c-.722-.361-1.335-.94-1.84-1.734-.48-.794-.721-1.758-.721-2.89 0-1.66.685-3.07 2.056-4.225 1.394-1.156 3.305-1.733 5.733-1.733 2.765 0 5.277.746 7.537 2.239l-2.38 4.226c-.601-.482-1.37-.903-2.308-1.265a7.584 7.584 0 00-2.813-.541c-.456 0-.841.084-1.153.252-.313.145-.469.313-.469.506 0 .24.336.422 1.009.542.674.12 1.491.265 2.453.433.985.169 1.959.422 2.921.759.985.337 1.815.95 2.488 1.842.673.866 1.01 1.974 1.01 3.322 0 1.758-.746 3.203-2.236 4.335-1.491 1.107-3.498 1.661-6.023 1.661zm17.859 0a16.32 16.32 0 01-4.76-.722c-1.586-.506-2.849-1.156-3.786-1.95l2.596-4.37c.697.553 1.683 1.059 2.957 1.516 1.274.458 2.38.686 3.318.686 1.154 0 1.731-.253 1.731-.758 0-.241-.253-.434-.757-.578-.481-.145-1.082-.24-1.804-.289a16.766 16.766 0 01-2.38-.433 13.192 13.192 0 01-2.38-.831c-.721-.361-1.334-.94-1.839-1.734-.481-.794-.721-1.758-.721-2.89 0-1.66.685-3.07 2.056-4.225 1.394-1.156 3.305-1.733 5.733-1.733 2.765 0 5.277.746 7.537 2.239l-2.38 4.226c-.601-.482-1.37-.903-2.308-1.265a7.584 7.584 0 00-2.813-.541c-.456 0-.841.084-1.154.252-.312.145-.468.313-.468.506 0 .24.336.422 1.009.542.673.12 1.491.265 2.452.433.986.169 1.96.422 2.921.759.986.337 1.816.95 2.489 1.842.673.866 1.009 1.974 1.009 3.322 0 1.758-.745 3.203-2.235 4.335-1.491 1.107-3.498 1.661-6.023 1.661z" fill="#fff"/><g clip-path="url(#clip0)" fill="#fff"><path d="M53.093 45.303a2.11 2.11 0 00-2.935.53c-2.674 3.85-10.454 3.852-13.128 0a2.11 2.11 0 00-3.466 0c-2.673 3.85-10.454 3.852-13.128 0a2.11 2.11 0 00-3.466 0c-2.673 3.85-10.453 3.852-13.128 0a2.11 2.11 0 00-3.465 2.405c3.872 5.579 13.234 6.183 18.326 1.893 4.478 3.772 12.169 3.728 16.594 0 5.09 4.289 14.457 3.68 18.326-1.893a2.11 2.11 0 00-.53-2.935zM10.336 33.326a2.11 2.11 0 002.11-2.11v-3.163h18.983v3.164a2.11 2.11 0 004.22 0V8.227A2.956 2.956 0 0138.6 5.272a2.956 2.956 0 012.953 2.953 2.11 2.11 0 004.22 0c0-3.954-3.218-7.171-7.173-7.171-3.954 0-7.171 3.217-7.171 7.171v6.117H12.445V8.226a2.956 2.956 0 012.953-2.953 2.956 2.956 0 012.954 2.953 2.11 2.11 0 004.218 0c0-3.954-3.217-7.171-7.172-7.171-3.954 0-7.171 3.217-7.171 7.171v22.99a2.11 2.11 0 002.109 2.11zm2.11-14.765h18.983v5.273H12.445v-5.273z"/><path d="M18.703 40.639c2.124 1.79 5.07 2.81 8.297 2.81 3.228 0 6.173-1.02 8.297-2.81 5.09 4.288 14.457 3.68 18.326-1.893a2.11 2.11 0 10-3.465-2.406c-2.674 3.851-10.454 3.853-13.128 0a2.11 2.11 0 00-3.466 0c-2.673 3.851-10.454 3.853-13.128 0a2.11 2.11 0 00-3.466 0c-2.673 3.851-10.453 3.853-13.128 0a2.11 2.11 0 00-3.465 2.406c3.872 5.579 13.234 6.182 18.326 1.893z"/></g><defs><clipPath id="clip0"><path fill="#fff" d="M0 0h54v54H0z"/></clipPath></defs></svg>