<svg width="35" height="35" fill="none" xmlns="http://www.w3.org/2000/svg"><g clip-path="url(#clip0)" fill="#fff"><path d="M34.412 29.365a1.367 1.367 0 00-1.902.344c-1.733 2.496-6.776 2.497-8.51 0a1.367 1.367 0 00-2.246 0c-1.732 2.496-6.775 2.497-8.509 0a1.367 1.367 0 00-2.246 0c-1.732 2.496-6.775 2.497-8.509 0a1.367 1.367 0 00-2.246 1.559c2.51 3.616 8.578 4.007 11.878 1.227 2.903 2.445 7.887 2.416 10.756 0 3.299 2.78 9.37 2.386 11.878-1.227.43-.62.276-1.472-.344-1.903zM6.7 21.6c.754 0 1.366-.612 1.366-1.367v-2.05h12.305v2.05a1.367 1.367 0 002.734 0V5.332c0-1.056.859-1.914 1.914-1.914 1.056 0 1.914.858 1.914 1.914a1.367 1.367 0 002.735 0A4.654 4.654 0 0025.019.684a4.654 4.654 0 00-4.648 4.648v3.964H8.066V5.332c0-1.056.859-1.914 1.914-1.914 1.056 0 1.915.858 1.915 1.914a1.367 1.367 0 002.734 0A4.654 4.654 0 009.98.684a4.654 4.654 0 00-4.648 4.648v14.901c0 .755.612 1.367 1.367 1.367zm1.366-9.57h12.305v3.418H8.066V12.03z"/><path d="M12.123 26.339c1.376 1.16 3.285 1.82 5.377 1.82 2.092 0 4.001-.66 5.378-1.82 3.299 2.78 9.37 2.385 11.878-1.227a1.367 1.367 0 10-2.246-1.56c-1.733 2.496-6.776 2.498-8.51 0a1.367 1.367 0 00-2.246 0c-1.732 2.496-6.775 2.498-8.509 0a1.367 1.367 0 00-2.246 0c-1.732 2.497-6.775 2.498-8.509 0a1.367 1.367 0 10-2.246 1.56c2.51 3.616 8.578 4.007 11.879 1.227z"/></g><defs><clipPath id="clip0"><path fill="#fff" d="M0 0h35v35H0z"/></clipPath></defs></svg>