<svg width="20" height="20" fill="none" xmlns="http://www.w3.org/2000/svg"><path d="M10 15.762a.977.977 0 100-1.953.977.977 0 000 1.953z" fill="#000"/><path d="M10 0C4.473 0 0 4.473 0 10s4.473 10 10 10 10-4.473 10-10S15.527 0 10 0zm0 18.438A8.433 8.433 0 011.562 10 8.433 8.433 0 0110 1.562 8.433 8.433 0 0118.438 10 8.433 8.433 0 0110 18.438z" fill="#000"/><path d="M10 5.02a3.129 3.129 0 00-3.125 3.125.781.781 0 101.563 0 1.564 1.564 0 013.125 0c0 .861-.701 1.562-1.563 1.562a.781.781 0 00-.781.781v1.953a.781.781 0 101.562 0v-1.27a3.13 3.13 0 002.344-3.026A3.129 3.129 0 0010 5.02z" fill="#000"/></svg>