<svg width="139" height="43" fill="none" xmlns="http://www.w3.org/2000/svg"><path d="M78.692 21.212H72.82v-7.291h-6.948v7.291H60V2.141h5.872v6.748h6.948V2.14h5.872v19.071zm15.842-1.772c-1.434 1.41-3.352 2.115-5.756 2.115-2.403 0-4.321-.705-5.755-2.116-1.415-1.41-2.122-3.126-2.122-5.146s.707-3.727 2.122-5.119c1.434-1.41 3.352-2.115 5.755-2.115 2.404 0 4.322.705 5.756 2.115 1.434 1.392 2.152 3.098 2.152 5.119 0 2.02-.718 3.736-2.152 5.146zm-5.756-2.431c.795 0 1.415-.248 1.861-.744.446-.514.669-1.172.669-1.972 0-.782-.223-1.42-.669-1.916-.446-.515-1.066-.772-1.86-.772-.776 0-1.386.257-1.832.772-.446.495-.669 1.134-.669 1.916 0 .8.223 1.458.67 1.973.445.495 1.055.743 1.83.743zm33.174 4.203h-5.233V13.15c0-.458-.136-.83-.407-1.115-.252-.286-.649-.43-1.192-.43-.794 0-1.511.363-2.151 1.087v8.521h-5.233V13.15c0-1.03-.533-1.544-1.598-1.544-.776 0-1.483.362-2.123 1.086v8.521h-5.232V7.402h5.232v1.572c.369-.457.979-.886 1.832-1.286.853-.42 1.793-.63 2.82-.63 2.093 0 3.44.81 4.04 2.431.446-.667 1.105-1.239 1.977-1.716a6.13 6.13 0 012.936-.714c1.337 0 2.394.343 3.169 1.029.775.686 1.163 1.725 1.163 3.117v10.007zm9.926.343c-2.248 0-4.118-.657-5.611-1.973-1.472-1.315-2.209-3.078-2.209-5.29 0-2.039.717-3.755 2.151-5.146 1.434-1.392 3.266-2.087 5.494-2.087 2.113 0 3.857.705 5.233 2.115 1.376 1.392 2.064 3.28 2.064 5.662v1.058h-9.535c.155.476.494.886 1.018 1.23.523.342 1.191.514 2.005.514.446 0 1.008-.095 1.686-.286.698-.19 1.212-.42 1.541-.686l2.151 3.174c-.659.552-1.54.981-2.645 1.286a13.289 13.289 0 01-3.343.43zm2.151-8.92c-.271-1.106-1.046-1.66-2.326-1.66-1.22 0-1.986.554-2.296 1.66h4.622z" fill="#000"/><path d="M72.18 39.797H60V20.726h11.773c1.86 0 3.285.496 4.274 1.487.988.991 1.482 2.116 1.482 3.374 0 1.163-.31 2.135-.93 2.916a4.104 4.104 0 01-2.384 1.459c1.066.152 1.948.667 2.646 1.544.697.857 1.046 1.896 1.046 3.116 0 1.43-.494 2.65-1.483 3.66-.988 1.01-2.403 1.516-4.244 1.516zM70.407 27.76c.31 0 .581-.105.814-.315a1.12 1.12 0 00.349-.829c0-.324-.116-.581-.349-.772a1.178 1.178 0 00-.814-.314h-4.535v2.23h4.535zm.175 7.234c.426 0 .755-.105.988-.315a1.14 1.14 0 00.378-.886c0-.343-.126-.63-.378-.858-.252-.248-.582-.372-.988-.372h-4.71v2.43h4.71zm23.06 4.803h-5.233v-1.315c-.388.496-.979.896-1.773 1.201a6.688 6.688 0 01-2.471.458c-1.202 0-2.306-.391-3.314-1.173-1.008-.8-1.512-1.925-1.512-3.374 0-1.067.262-1.944.785-2.63.543-.706 1.153-1.172 1.832-1.401a6.391 6.391 0 012.209-.372c2.015 0 3.43.505 4.244 1.515v-1.43c0-.495-.233-.905-.698-1.229-.445-.324-1.085-.486-1.918-.486-1.396 0-2.694.448-3.896 1.344l-1.773-3.174c1.764-1.391 3.973-2.087 6.628-2.087.93 0 1.783.095 2.558.286a6.992 6.992 0 012.18.886c.679.4 1.202 1.001 1.57 1.802.388.781.582 1.725.582 2.83v8.35zm-7.297-3.002c1.027 0 1.715-.248 2.064-.743v-.772c-.349-.496-1.037-.744-2.064-.744-1.22 0-1.831.382-1.831 1.144 0 .743.61 1.115 1.831 1.115zm16.035 3.345a13.38 13.38 0 01-3.837-.571c-1.28-.4-2.297-.915-3.053-1.544l2.093-3.46c.562.438 1.357.839 2.384 1.2 1.027.363 1.919.544 2.674.544.931 0 1.396-.2 1.396-.6 0-.19-.204-.343-.611-.458-.387-.114-.872-.19-1.453-.228a13.735 13.735 0 01-1.919-.344 10.745 10.745 0 01-1.918-.657c-.582-.286-1.076-.744-1.483-1.373-.388-.629-.581-1.391-.581-2.287 0-1.315.552-2.43 1.657-3.345 1.124-.915 2.664-1.373 4.622-1.373 2.228 0 4.254.59 6.075 1.773l-1.918 3.345c-.485-.381-1.105-.715-1.861-1a6.211 6.211 0 00-2.267-.43c-.368 0-.678.067-.93.2-.252.115-.378.248-.378.4 0 .192.271.335.814.43.542.095 1.201.21 1.976.343.795.133 1.58.334 2.355.6.795.267 1.463.753 2.006 1.459.543.686.814 1.563.814 2.63 0 1.392-.601 2.535-1.802 3.431-1.202.877-2.82 1.316-4.855 1.316zm14.396 0a13.38 13.38 0 01-3.837-.571c-1.279-.4-2.296-.915-3.052-1.544l2.093-3.46c.562.438 1.356.839 2.383 1.2 1.028.363 1.919.544 2.675.544.93 0 1.395-.2 1.395-.6 0-.19-.203-.343-.61-.458-.388-.114-.872-.19-1.454-.228a13.723 13.723 0 01-1.918-.344 10.724 10.724 0 01-1.919-.657c-.581-.286-1.076-.744-1.483-1.373-.387-.629-.581-1.391-.581-2.287 0-1.315.552-2.43 1.657-3.345 1.124-.915 2.665-1.373 4.622-1.373 2.229 0 4.254.59 6.076 1.773l-1.919 3.345c-.484-.381-1.104-.715-1.86-1a6.22 6.22 0 00-2.268-.43c-.368 0-.678.067-.93.2-.252.115-.378.248-.378.4 0 .192.271.335.814.43.543.095 1.202.21 1.977.343a14.79 14.79 0 012.355.6c.794.267 1.463.753 2.005 1.459.543.686.814 1.563.814 2.63 0 1.392-.6 2.535-1.802 3.431-1.202.877-2.82 1.316-4.855 1.316zm-73.515-4.087a1.719 1.719 0 00-2.392.432c-2.178 3.138-8.517 3.14-10.697 0a1.719 1.719 0 00-2.824 0c-2.178 3.138-8.517 3.14-10.697 0a1.719 1.719 0 00-2.823 0c-2.178 3.138-8.518 3.14-10.697 0a1.719 1.719 0 00-2.824 1.96c3.155 4.546 10.784 5.038 14.933 1.543 3.648 3.073 9.915 3.037 13.52 0 4.148 3.494 11.78 2.998 14.933-1.543.541-.78.348-1.85-.432-2.392zM8.422 26.295c.95 0 1.719-.77 1.719-1.719v-2.578h15.468v2.578a1.719 1.719 0 003.438 0V5.843a2.409 2.409 0 012.406-2.406 2.409 2.409 0 012.406 2.406 1.719 1.719 0 003.438 0A5.85 5.85 0 0031.453 0a5.85 5.85 0 00-5.844 5.843v4.984H10.141V5.843a2.409 2.409 0 012.406-2.406 2.409 2.409 0 012.406 2.406 1.719 1.719 0 003.438 0A5.85 5.85 0 0012.547 0a5.85 5.85 0 00-5.844 5.843v18.733c0 .95.77 1.719 1.719 1.719zm1.719-12.03h15.468v4.296H10.141v-4.296z" fill="#000"/><path d="M15.24 32.253c1.73 1.458 4.13 2.29 6.76 2.29s5.03-.832 6.76-2.29c4.148 3.495 11.78 3 14.933-1.543a1.719 1.719 0 10-2.824-1.96c-2.178 3.138-8.517 3.14-10.697 0a1.719 1.719 0 00-2.824 0c-2.178 3.138-8.517 3.14-10.697 0a1.719 1.719 0 00-2.823 0c-2.178 3.138-8.518 3.14-10.697 0a1.719 1.719 0 00-2.824 1.96c3.155 4.546 10.784 5.038 14.933 1.543z" fill="#000"/></svg>