<svg width="61" height="54" fill="none" xmlns="http://www.w3.org/2000/svg"><path d="M11.982 1C9.88 8.607 8.27 14.39 6.245 21.853c-.432 1.594-.855 3.191-1.28 4.788-.16.605-.369 2.421-.505 1.81-.172-.775-.012-1.775-.012-2.56 0-2.475-.032-4.92-.221-7.386M11.76 5.434c.883 2.129 3.69 6.741 2.905 9.367-.368 1.231-2.598 1.23-3.545 1.391-.401.069-.804.124-1.207.185-.413.063-1.319-.058-1.206.345.208.742 1.3.833 1.994 1.17 2.327 1.125 2.512 1.145 4.924 2.375.942.48 6.42 2.611 6.007 4.468-.558 2.51-6.68 3.046-8.543 3.52M29.71 18c.027 5.79-.95 13.467 1.49 19.083.96 2.208.948.59.527.521-.843-.137-2.778.102-3.42.209C25.632 38.258 23 39.153 23 42" stroke="#F5DD00" stroke-linecap="round" stroke-linejoin="round"/><path d="M10.43 41.547c1.74-4.684 3.66-9.274 5.515-13.91 1.883-4.707-4.079 9.3-5.687 14.107-1.193 3.565-2.121 7.169-3.127 10.784-.576 2.069-.65-.102-.862-.985-1.525-6.37-3.933-12.594-4.923-19.08C.979 30.06.299 27.788 3.13 27.28c5.475-.98 11.29.356 16.643 1.391 10.792 2.088 21.893 4.218 32.941 3.312 1.653-.136 5.127-.282 6.34-1.982.927-1.3.344-4.542.344-5.958" stroke="#F5DD00" stroke-linecap="round" stroke-linejoin="round"/></svg>