<svg width="87" height="87" fill="none" xmlns="http://www.w3.org/2000/svg"><g clip-path="url(#clip0)"><path d="M43.5 87c-11.62 0-22.543-4.525-30.76-12.74C4.526 66.042 0 55.12 0 43.5c0-11.62 4.525-22.543 12.74-30.76C20.958 4.526 31.88 0 43.5 0c11.62 0 22.543 4.525 30.76 12.74C82.474 20.958 87 31.88 87 43.5c0 11.62-4.525 22.543-12.74 30.76C66.042 82.474 55.12 87 43.5 87zm0-80.203C23.262 6.797 6.797 23.262 6.797 43.5c0 20.238 16.465 36.703 36.703 36.703 20.238 0 36.703-16.465 36.703-36.703 0-20.238-16.465-36.703-36.703-36.703zm15.928 44.212a3.398 3.398 0 00-4.692 1.042c-.041.066-4.27 6.582-11.406 6.582-7.135 0-11.364-6.516-11.406-6.582a3.398 3.398 0 10-5.735 3.65c.253.396 6.317 9.73 17.141 9.73 10.824 0 16.888-9.334 17.14-9.73a3.398 3.398 0 00-1.042-4.693zM28.547 28.036a4.248 4.248 0 110 8.496 4.248 4.248 0 010-8.496zm25.488 4.248a4.248 4.248 0 108.496 0 4.248 4.248 0 00-8.496 0z" fill="#000"/></g><defs><clipPath id="clip0"><path fill="#fff" d="M0 0h87v87H0z"/></clipPath></defs></svg>