<svg width="34" height="34" fill="none" xmlns="http://www.w3.org/2000/svg"><path d="M33.414 28.14H.586A.586.586 0 010 27.552V6.45c0-.324.263-.587.586-.587h32.828c.323 0 .586.263.586.587v21.103a.586.586 0 01-.586.586z" fill="#F5F5F5"/><path d="M34 7.577H0V6.45c0-.324.263-.587.586-.587h32.828c.323 0 .586.263.586.587v1.127zm0 5.142H0v1.713h34V12.72zm0-3.429H0v1.713h34V9.289zm0 8.568H.586A.586.586 0 010 17.272v-1.127h34v1.713zM34 23H0v1.713h34V23zm-.586 5.14H.586A.586.586 0 010 27.552v-1.127h34v1.127a.586.586 0 01-.586.586zM34 19.57H0v1.714h34V19.57z" fill="#FF4B55"/><path d="M15.241 5.863H.586A.586.586 0 000 6.45v10.823c0 .323.263.586.586.586h14.655a.586.586 0 00.587-.586V6.449a.586.586 0 00-.587-.586z" fill="#41479B"/><path d="M1.646 7.206l.13.389.41.003c.053 0 .075.068.032.1l-.33.243.124.392a.055.055 0 01-.085.061l-.333-.238-.334.238a.055.055 0 01-.085-.061l.124-.391-.33-.244a.055.055 0 01.032-.1l.41-.003.13-.39a.055.055 0 01.105 0zm0 2.034l.13.39.41.003c.053 0 .075.068.032.1l-.33.244.124.39a.055.055 0 01-.085.062l-.333-.238-.334.238a.055.055 0 01-.085-.061l.124-.391-.33-.244a.055.055 0 01.032-.1l.41-.003.13-.39a.055.055 0 01.105 0zm0 2.036l.13.39.41.002c.053 0 .075.069.032.1l-.33.244.124.39a.055.055 0 01-.085.062l-.333-.238-.334.238a.055.055 0 01-.085-.061l.124-.391-.33-.244a.055.055 0 01.032-.1l.41-.003.13-.389a.055.055 0 01.105 0zm0 2.035l.13.39.41.002c.053.001.075.069.032.1l-.33.244.124.391a.055.055 0 01-.085.062l-.333-.239-.334.239a.055.055 0 01-.085-.062l.124-.391-.33-.244a.055.055 0 01.032-.1l.41-.003.13-.389a.055.055 0 01.105 0zm0 2.039l.13.39.41.003c.053 0 .075.068.032.1l-.33.243.124.391a.055.055 0 01-.085.062l-.333-.239-.334.239a.055.055 0 01-.085-.062l.124-.39-.33-.245a.055.055 0 01.032-.1l.41-.002.13-.39a.055.055 0 01.105 0zm1.58-7.144l.13.389.41.003c.053 0 .075.068.032.1l-.33.243.124.391a.055.055 0 01-.085.062l-.333-.238-.334.238a.055.055 0 01-.085-.062l.124-.39-.33-.244a.055.055 0 01.032-.1l.41-.003.13-.39a.055.055 0 01.105 0zm0 2.034l.13.39.41.003c.053 0 .075.068.032.1l-.33.244.124.39a.055.055 0 01-.085.062l-.333-.238-.334.238a.055.055 0 01-.085-.061l.124-.391-.33-.244a.055.055 0 01.032-.1l.41-.003.13-.39a.055.055 0 01.105 0zm0 2.036l.13.39.41.002c.053 0 .075.069.032.1l-.33.244.124.39a.055.055 0 01-.085.063l-.333-.239-.334.238a.055.055 0 01-.085-.061l.124-.391-.33-.244a.055.055 0 01.032-.1l.41-.003.13-.389a.055.055 0 01.105 0zm0 2.035l.13.39.41.002c.053 0 .075.069.032.1l-.33.244.124.391a.055.055 0 01-.085.062l-.333-.239-.334.239a.055.055 0 01-.085-.062l.124-.391-.33-.244a.055.055 0 01.032-.1l.41-.003.13-.389a.055.055 0 01.105 0zm1.58-7.105l.13.389.41.003c.053 0 .075.068.032.1l-.33.243.124.392a.055.055 0 01-.085.061l-.333-.238-.334.238a.055.055 0 01-.085-.061l.124-.392-.33-.243a.055.055 0 01.032-.1l.41-.003.13-.39a.055.055 0 01.105 0zm0 2.034l.13.39.41.003c.053 0 .075.068.032.1l-.33.244.124.39a.055.055 0 01-.085.062l-.333-.238-.334.238a.055.055 0 01-.085-.061l.124-.391-.33-.244a.055.055 0 01.032-.1l.41-.003.13-.39a.055.055 0 01.105 0zm0 2.036l.13.39.41.002c.053 0 .075.069.032.1l-.33.244.124.39a.055.055 0 01-.085.062l-.333-.238-.334.238a.055.055 0 01-.085-.061l.124-.391-.33-.244a.055.055 0 01.032-.1l.41-.003.13-.389a.055.055 0 01.105 0zm0 2.035l.13.39.41.002c.053.001.075.069.032.1l-.33.244.124.391a.055.055 0 01-.085.062l-.333-.239-.334.239a.055.055 0 01-.085-.062l.124-.391-.33-.244a.055.055 0 01.032-.1l.41-.003.13-.389a.055.055 0 01.105 0zm0 2.035l.13.39.41.003c.053 0 .075.068.032.1l-.33.243.124.391a.055.055 0 01-.085.062l-.333-.239-.334.239a.055.055 0 01-.085-.062l.124-.39-.33-.245a.055.055 0 01.032-.1l.41-.002.13-.39a.055.055 0 01.105 0zm1.58-7.14l.13.389.41.003c.053 0 .075.068.033.1l-.33.243.123.391a.055.055 0 01-.084.062l-.334-.238L6 9.394a.055.055 0 01-.085-.062l.124-.39-.33-.244a.055.055 0 01.032-.1l.41-.003.13-.39a.055.055 0 01.105 0zm0 2.034l.13.39.41.003c.053 0 .075.068.033.1l-.33.244.123.39a.055.055 0 01-.084.062l-.334-.238-.334.238a.055.055 0 01-.085-.061l.124-.391-.33-.244a.055.055 0 01.032-.1l.41-.003.13-.39a.055.055 0 01.105 0zm0 2.036l.13.39.41.002c.053 0 .075.069.033.1l-.33.244.123.39a.055.055 0 01-.084.063l-.334-.239-.334.238a.055.055 0 01-.085-.061l.124-.391-.33-.244a.055.055 0 01.032-.1l.41-.003.13-.389a.055.055 0 01.105 0zm0 2.035l.13.39.41.002c.053 0 .075.069.033.1l-.33.244.123.391a.055.055 0 01-.084.062l-.334-.239L6 15.5a.055.055 0 01-.085-.062l.124-.391-.33-.244a.055.055 0 01.032-.1l.41-.003.13-.389a.055.055 0 01.105 0zm1.58-7.105l.13.389.41.003c.053 0 .075.068.033.1l-.33.243.124.392a.055.055 0 01-.085.061l-.334-.238-.334.238a.055.055 0 01-.085-.061l.124-.392-.33-.243a.055.055 0 01.033-.1l.41-.003.13-.39a.055.055 0 01.104 0zm0 2.034l.13.39.41.003c.053 0 .075.068.033.1l-.33.244.124.39a.055.055 0 01-.085.062l-.334-.238-.334.238a.055.055 0 01-.085-.061l.124-.391-.33-.244a.055.055 0 01.033-.1l.41-.003.13-.39a.055.055 0 01.104 0zm0 2.036l.13.39.41.002c.053 0 .075.069.033.1l-.33.244.124.39a.055.055 0 01-.085.062l-.334-.238-.334.238a.055.055 0 01-.085-.061l.124-.391-.33-.244a.055.055 0 01.033-.1l.41-.003.13-.389a.055.055 0 01.104 0zm-.001 2.035l.13.39.41.002c.053.001.075.069.033.1l-.33.244.124.391a.055.055 0 01-.085.062l-.334-.239-.334.239a.055.055 0 01-.085-.062l.124-.391-.33-.244a.055.055 0 01.033-.1l.41-.003.13-.389a.055.055 0 01.104 0zm0 2.035l.13.39.41.003c.053 0 .075.068.033.1l-.33.243.124.391a.055.055 0 01-.085.062l-.334-.239-.334.239a.055.055 0 01-.085-.062l.124-.39-.33-.245a.055.055 0 01.033-.1l.41-.002.13-.39a.055.055 0 01.104 0zm1.58-7.14l.13.389.41.003c.053 0 .075.068.033.1l-.33.243.124.391a.055.055 0 01-.085.062l-.334-.238-.334.238a.055.055 0 01-.085-.062l.124-.39-.33-.244a.055.055 0 01.033-.1l.41-.003.13-.39a.055.055 0 01.104 0zm0 2.034l.13.39.41.003c.053 0 .075.068.033.1l-.33.244.124.39a.055.055 0 01-.085.062l-.334-.238-.334.238a.055.055 0 01-.085-.061l.124-.391-.33-.244a.055.055 0 01.033-.1l.41-.003.13-.39a.055.055 0 01.104 0zm.001 2.036l.13.39.41.002c.053 0 .075.069.033.1l-.33.244.124.39a.055.055 0 01-.085.063l-.334-.239-.334.238a.055.055 0 01-.085-.061l.124-.391-.33-.244a.055.055 0 01.033-.1l.41-.003.13-.389a.055.055 0 01.104 0zm0 2.035l.13.39.41.002c.053 0 .075.069.033.1l-.33.244.124.391a.055.055 0 01-.085.062l-.334-.239-.334.239a.055.055 0 01-.085-.062l.124-.391-.33-.244a.055.055 0 01.033-.1l.41-.003.13-.389a.055.055 0 01.104 0zm1.58-7.105l.13.389.41.003c.053 0 .075.068.033.1l-.33.243.124.392a.055.055 0 01-.085.061l-.334-.238-.334.238a.055.055 0 01-.085-.061l.124-.392-.33-.243a.055.055 0 01.033-.1l.41-.003.13-.39a.055.055 0 01.104 0zm0 2.034l.13.39.41.003c.053 0 .075.068.033.1l-.33.244.124.39a.055.055 0 01-.085.062l-.334-.238-.334.238a.055.055 0 01-.085-.061l.124-.391-.33-.244a.055.055 0 01.033-.1l.41-.003.13-.39a.055.055 0 01.104 0zm0 2.036l.13.39.41.002c.053 0 .075.069.033.1l-.33.244.124.39a.055.055 0 01-.085.062l-.334-.238-.334.238a.055.055 0 01-.085-.061l.124-.391-.33-.244a.055.055 0 01.033-.1l.41-.003.13-.389c.016-.05.088-.05.104 0zm0 2.035l.13.39.41.002c.053.001.075.069.032.1l-.33.244.124.391a.055.055 0 01-.085.062l-.334-.239-.334.239a.055.055 0 01-.085-.062l.124-.391-.33-.244a.055.055 0 01.033-.1l.41-.003.13-.389c.016-.05.088-.05.104 0zm0 2.035l.13.39.41.003c.053 0 .075.068.032.1l-.33.243.124.391a.055.055 0 01-.085.062l-.334-.239-.334.239a.055.055 0 01-.085-.062l.124-.39-.33-.245a.055.055 0 01.033-.1l.41-.002.13-.39c.016-.05.088-.05.104 0zm1.58-7.14l.13.389.41.003c.053 0 .075.068.032.1l-.33.243.124.391a.055.055 0 01-.085.062l-.334-.238-.334.238a.055.055 0 01-.084-.062l.123-.39-.33-.244a.055.055 0 01.033-.1l.41-.003.13-.39a.055.055 0 01.104 0zm0 2.034l.13.39.41.003c.053 0 .075.068.032.1l-.33.244.124.39a.055.055 0 01-.085.062l-.334-.238-.334.238a.055.055 0 01-.084-.061l.123-.391-.33-.244a.055.055 0 01.033-.1l.41-.003.13-.39a.055.055 0 01.104 0zm.001 2.036l.13.39.41.002c.053 0 .075.069.032.1l-.33.244.124.39a.055.055 0 01-.085.063l-.334-.239-.334.238a.055.055 0 01-.084-.061l.123-.391-.33-.244a.055.055 0 01.033-.1l.41-.003.13-.389a.055.055 0 01.104 0zm0 2.035l.13.39.41.002c.053 0 .075.069.032.1l-.33.244.124.391a.055.055 0 01-.085.062l-.334-.239-.334.239a.055.055 0 01-.084-.062l.123-.391-.33-.244a.055.055 0 01.033-.1l.41-.003.13-.389a.055.055 0 01.104 0zm1.58-7.105l.13.389.41.003c.053 0 .075.068.032.1l-.33.243.124.392a.055.055 0 01-.085.061l-.334-.238-.334.238a.055.055 0 01-.084-.061l.123-.392-.33-.243a.055.055 0 01.033-.1l.41-.003.13-.39a.055.055 0 01.105 0zm0 2.034l.13.39.41.003c.053 0 .075.068.032.1l-.33.244.124.39a.055.055 0 01-.085.062l-.334-.238-.334.238a.055.055 0 01-.084-.061l.123-.391-.33-.244a.055.055 0 01.033-.1l.41-.003.13-.39a.055.055 0 01.105 0zm0 2.036l.13.39.41.002c.053 0 .075.069.032.1l-.33.244.124.39a.055.055 0 01-.085.062l-.334-.238-.334.238a.055.055 0 01-.084-.061l.123-.391-.33-.244a.055.055 0 01.033-.1l.41-.003.13-.389a.055.055 0 01.105 0zm-.001 2.035l.13.39.41.002c.053.001.075.069.032.1l-.33.244.124.391a.055.055 0 01-.085.062l-.334-.239-.334.239a.055.055 0 01-.084-.062l.123-.391-.33-.244a.055.055 0 01.033-.1l.41-.003.13-.389a.055.055 0 01.105 0zm0 2.035l.13.39.41.003c.053 0 .075.068.032.1l-.33.243.124.391a.055.055 0 01-.085.062l-.334-.239-.334.239a.055.055 0 01-.084-.062l.123-.39-.33-.245a.055.055 0 01.033-.1l.41-.002.13-.39a.055.055 0 01.105 0z" fill="#F5F5F5"/></svg>