<svg width="20" height="20" fill="none" xmlns="http://www.w3.org/2000/svg"><g clip-path="url(#clip0)" fill="#8E24AA"><path d="M19.295 11.577c.597-5.023-.286-8.194-1.88-9.628h.001C14.845-.502 6.16-.864 3.083 2.058 1.7 3.487 1.215 5.584 1.16 8.181c-.053 2.597-.116 7.463 4.418 8.783h.004l-.004 2.016s-.031.817.49.98c.597.194.867-.185 2.723-2.402 3.103.27 5.487-.347 5.758-.437.626-.21 4.172-.68 4.745-5.545zM9.098 16.14s-1.964 2.45-2.575 3.085c-.2.207-.42.188-.416-.223 0-.269.015-3.346.015-3.346-3.844-1.102-3.617-5.245-3.576-7.413.042-2.168.439-3.944 1.609-5.14C6.854.574 14.468 1.14 16.408 2.963c2.372 2.102 1.527 8.042 1.532 8.245-.487 4.061-3.36 4.319-3.889 4.495-.226.075-2.321.614-4.953.438z"/><path d="M10.184 3.578c-.32 0-.32.5 0 .504 2.49.02 4.54 1.754 4.562 4.937 0 .336.491.332.487-.004-.027-3.43-2.266-5.418-5.049-5.437z"/><path d="M13.46 8.492c-.008.332.483.348.487.012.04-1.89-1.125-3.448-3.316-3.613-.32-.023-.354.481-.034.505 1.9.144 2.9 1.44 2.863 3.096zm-.526 2.151c-.412-.239-.831-.09-1.005.144l-.362.47c-.184.238-.528.206-.528.206-2.512-.664-3.184-3.293-3.184-3.293s-.03-.356.2-.546l.453-.375c.226-.18.37-.614.139-1.04-.617-1.114-1.031-1.498-1.242-1.793-.221-.277-.555-.34-.901-.152h-.008c-.72.421-1.51 1.21-1.257 2.023.43.857 1.222 3.587 3.745 5.65 1.186.977 3.063 1.977 3.86 2.208l.007.011c.785.262 1.548-.558 1.956-1.3v-.006c.18-.36.12-.7-.143-.922-.469-.457-1.175-.961-1.73-1.285z"/><path d="M10.973 6.75c.801.047 1.19.466 1.231 1.325.015.336.502.312.487-.023-.053-1.122-.638-1.747-1.691-1.805-.321-.02-.351.485-.027.504z"/></g><defs><clipPath id="clip0"><path fill="#fff" d="M0 0h20v20H0z"/></clipPath></defs></svg>